<svg version="1.1" preserveAspectRatio="none" xmlns="http://www.w3.org/2000/svg" width="500" height="500" viewBox="0 0 500 500"><rect width="100%" height="100%" fill="#1A244D" fill-opacity="1"/><svg viewBox="2601.2677 2116.3155 578.9301 234" width="333" height="134.59656010285178" x="83.5px" y="182.7017px" xmlns="http://www.w3.org/2000/svg" xmlns:xlink="http://www.w3.org/1999/xlink" preserveAspectRatio="none"><defs></defs><style>.background {fill:#1A244D;fill-opacity:1;}.icon1 {fill:#FFCC57;fill-opacity:1;}.icon1-str {stroke:#FFCC57;stroke-opacity:1;}.icon2 {fill:#3EA0C0;fill-opacity:1;}.icon3 {fill:#0AF9FF;fill-opacity:0.95;}.icon3-str {stroke:#0AF9FF;stroke-opacity:0.95;}</style><g opacity="1" transform="rotate(0 2777.2674 2116.3155)">
<svg width="402.9304" height="180" x="2777.2674" y="2116.3155" version="1.1" preserveAspectRatio="none" viewBox="0 0 402.9304 180">
  <defs><rect x="0" y="0" width="402.9304" height="180" rx="0px" ry="0px" id="id-B7crM0kCi1707486832813"></rect></defs><use class="icon1 icon3-str" style="stroke-width:0;" xlink:href="#id-B7crM0kCi1707486832813"></use>
</svg>
</g><g opacity="1" transform="rotate(0 2692.67 2326.3155)">
<svg width="396.1256" height="24" x="2692.67" y="2326.3155" version="1.1" preserveAspectRatio="none" viewBox="0 -29.68 493.84 29.92">
  <g transform="matrix(1 0 0 1 0 0)" class="icon1"><path id="id-6izo4zJp19" d="M22.52 0L22.52-24.52L12.92-24.52L12.92-28L36.08-28L36.08-24.52L26.48-24.52L26.48 0L22.52 0Z M53.20-21.40Q57.24-21.40 59.62-19.06Q62-16.72 62-12.20L62-12.20L62 0L58.16 0L58.16-11.76Q58.16-14.84 56.68-16.40Q55.20-17.96 52.44-17.96L52.44-17.96Q49.32-17.96 47.52-16.14Q45.72-14.32 45.72-10.92L45.72-10.92L45.72 0L41.88 0L41.88-29.68L45.72-29.68L45.72-18.20Q46.92-19.72 48.86-20.56Q50.80-21.40 53.20-21.40L53.20-21.40Z M90.40-10.48Q90.40-10.04 90.32-9.32L90.32-9.32L73.12-9.32Q73.48-6.52 75.58-4.82Q77.68-3.12 80.80-3.12L80.80-3.12Q84.60-3.12 86.92-5.68L86.92-5.68L89.04-3.20Q87.60-1.52 85.46-0.64Q83.32 0.24 80.68 0.24L80.68 0.24Q77.32 0.24 74.72-1.14Q72.12-2.52 70.70-5Q69.28-7.48 69.28-10.60L69.28-10.60Q69.28-13.68 70.66-16.16Q72.04-18.64 74.46-20.02Q76.88-21.40 79.92-21.40L79.92-21.40Q82.96-21.40 85.34-20.02Q87.72-18.64 89.06-16.16Q90.40-13.68 90.40-10.48L90.40-10.48ZM79.92-18.16Q77.16-18.16 75.30-16.48Q73.44-14.80 73.12-12.08L73.12-12.08L86.72-12.08Q86.40-14.76 84.54-16.46Q82.68-18.16 79.92-18.16L79.92-18.16Z M119.72 0.24Q116.48 0.24 113.94-1.16Q111.40-2.56 109.96-5.02Q108.52-7.48 108.52-10.60L108.52-10.60Q108.52-13.72 109.96-16.18Q111.40-18.64 113.94-20.02Q116.48-21.40 119.72-21.40L119.72-21.40Q122.60-21.40 124.86-20.24Q127.12-19.08 128.36-16.88L128.36-16.88L125.44-15Q124.44-16.52 122.96-17.28Q121.48-18.04 119.68-18.04L119.68-18.04Q117.60-18.04 115.94-17.12Q114.28-16.20 113.34-14.50Q112.40-12.80 112.40-10.60L112.40-10.60Q112.40-8.36 113.34-6.66Q114.28-4.96 115.94-4.04Q117.60-3.12 119.68-3.12L119.68-3.12Q121.48-3.12 122.96-3.88Q124.44-4.64 125.44-6.16L125.44-6.16L128.36-4.32Q127.12-2.12 124.86-0.94Q122.60 0.24 119.72 0.24L119.72 0.24Z M144.08 0.24Q140.92 0.24 138.40-1.16Q135.88-2.56 134.46-5.02Q133.04-7.48 133.04-10.60L133.04-10.60Q133.04-13.72 134.46-16.18Q135.88-18.64 138.40-20.02Q140.92-21.40 144.08-21.40L144.08-21.40Q147.24-21.40 149.74-20.02Q152.24-18.64 153.66-16.18Q155.08-13.72 155.08-10.60L155.08-10.60Q155.08-7.48 153.66-5.02Q152.24-2.56 149.74-1.16Q147.24 0.24 144.08 0.24L144.08 0.24ZM144.08-3.12Q146.12-3.12 147.74-4.06Q149.36-5 150.28-6.70Q151.20-8.40 151.20-10.60L151.20-10.60Q151.20-12.80 150.28-14.50Q149.36-16.20 147.74-17.12Q146.12-18.04 144.08-18.04L144.08-18.04Q142.04-18.04 140.42-17.12Q138.80-16.20 137.86-14.50Q136.92-12.80 136.92-10.60L136.92-10.60Q136.92-8.40 137.86-6.70Q138.80-5 140.42-4.06Q142.04-3.12 144.08-3.12L144.08-3.12Z M178.56-29.68L182.40-29.68L182.40 0L178.72 0L178.72-3.36Q177.44-1.60 175.48-0.68Q173.52 0.24 171.16 0.24L171.16 0.24Q168.08 0.24 165.64-1.12Q163.20-2.48 161.82-4.94Q160.44-7.40 160.44-10.60L160.44-10.60Q160.44-13.80 161.82-16.24Q163.20-18.68 165.64-20.04Q168.08-21.40 171.16-21.40L171.16-21.40Q173.44-21.40 175.36-20.54Q177.28-19.68 178.56-18L178.56-18L178.56-29.68ZM171.48-3.12Q173.48-3.12 175.12-4.06Q176.76-5 177.68-6.70Q178.60-8.40 178.60-10.60L178.60-10.60Q178.60-12.80 177.68-14.50Q176.76-16.20 175.12-17.12Q173.48-18.04 171.48-18.04L171.48-18.04Q169.44-18.04 167.82-17.12Q166.20-16.20 165.26-14.50Q164.32-12.80 164.32-10.60L164.32-10.60Q164.32-8.40 165.26-6.70Q166.20-5 167.82-4.06Q169.44-3.12 171.48-3.12L171.48-3.12Z M210.84-10.48Q210.84-10.04 210.76-9.32L210.76-9.32L193.56-9.32Q193.92-6.52 196.02-4.82Q198.12-3.12 201.24-3.12L201.24-3.12Q205.04-3.12 207.36-5.68L207.36-5.68L209.48-3.20Q208.04-1.52 205.90-0.64Q203.76 0.24 201.12 0.24L201.12 0.24Q197.76 0.24 195.16-1.14Q192.56-2.52 191.14-5Q189.72-7.48 189.72-10.60L189.72-10.60Q189.72-13.68 191.10-16.16Q192.48-18.64 194.90-20.02Q197.32-21.40 200.36-21.40L200.36-21.40Q203.40-21.40 205.78-20.02Q208.16-18.64 209.50-16.16Q210.84-13.68 210.84-10.48L210.84-10.48ZM200.36-18.16Q197.60-18.16 195.74-16.48Q193.88-14.80 193.56-12.08L193.56-12.08L207.16-12.08Q206.84-14.76 204.98-16.46Q203.12-18.16 200.36-18.16L200.36-18.16Z M240.16 0.24Q236.92 0.24 234.38-1.16Q231.84-2.56 230.40-5.02Q228.96-7.48 228.96-10.60L228.96-10.60Q228.96-13.72 230.40-16.18Q231.84-18.64 234.38-20.02Q236.92-21.40 240.16-21.40L240.16-21.40Q243.04-21.40 245.30-20.24Q247.56-19.08 248.80-16.88L248.80-16.88L245.88-15Q244.88-16.52 243.40-17.28Q241.92-18.04 240.12-18.04L240.12-18.04Q238.04-18.04 236.38-17.12Q234.72-16.20 233.78-14.50Q232.84-12.80 232.84-10.60L232.84-10.60Q232.84-8.36 233.78-6.66Q234.72-4.96 236.38-4.04Q238.04-3.12 240.12-3.12L240.12-3.12Q241.92-3.12 243.40-3.88Q244.88-4.64 245.88-6.16L245.88-6.16L248.80-4.32Q247.56-2.12 245.30-0.94Q243.04 0.24 240.16 0.24L240.16 0.24Z M264.52 0.24Q261.36 0.24 258.84-1.16Q256.32-2.56 254.90-5.02Q253.48-7.48 253.48-10.60L253.48-10.60Q253.48-13.72 254.90-16.18Q256.32-18.64 258.84-20.02Q261.36-21.40 264.52-21.40L264.52-21.40Q267.68-21.40 270.18-20.02Q272.68-18.64 274.10-16.18Q275.52-13.72 275.52-10.60L275.52-10.60Q275.52-7.48 274.10-5.02Q272.68-2.56 270.18-1.16Q267.68 0.24 264.52 0.24L264.52 0.24ZM264.52-3.12Q266.56-3.12 268.18-4.06Q269.80-5 270.72-6.70Q271.64-8.40 271.64-10.60L271.64-10.60Q271.64-12.80 270.72-14.50Q269.80-16.20 268.18-17.12Q266.56-18.04 264.52-18.04L264.52-18.04Q262.48-18.04 260.86-17.12Q259.24-16.20 258.30-14.50Q257.36-12.80 257.36-10.60L257.36-10.60Q257.36-8.40 258.30-6.70Q259.24-5 260.86-4.06Q262.48-3.12 264.52-3.12L264.52-3.12Z M309.36-21.40Q313.36-21.40 315.70-19.08Q318.04-16.76 318.04-12.20L318.04-12.20L318.04 0L314.20 0L314.20-11.76Q314.20-14.84 312.78-16.40Q311.36-17.96 308.72-17.96L308.72-17.96Q305.80-17.96 304.08-16.14Q302.36-14.32 302.36-10.92L302.36-10.92L302.36 0L298.52 0L298.52-11.76Q298.52-14.84 297.10-16.40Q295.68-17.96 293.04-17.96L293.04-17.96Q290.12-17.96 288.40-16.14Q286.68-14.32 286.68-10.92L286.68-10.92L286.68 0L282.84 0L282.84-21.20L286.52-21.20L286.52-18.04Q287.68-19.68 289.56-20.54Q291.44-21.40 293.84-21.40L293.84-21.40Q296.32-21.40 298.24-20.40Q300.16-19.40 301.20-17.48L301.20-17.48Q302.40-19.32 304.54-20.36Q306.68-21.40 309.36-21.40L309.36-21.40Z M353.64-21.40Q357.64-21.40 359.98-19.08Q362.32-16.76 362.32-12.20L362.32-12.20L362.32 0L358.48 0L358.48-11.76Q358.48-14.84 357.06-16.40Q355.64-17.96 353-17.96L353-17.96Q350.08-17.96 348.36-16.14Q346.64-14.32 346.64-10.92L346.64-10.92L346.64 0L342.80 0L342.80-11.76Q342.80-14.84 341.38-16.40Q339.96-17.96 337.32-17.96L337.32-17.96Q334.40-17.96 332.68-16.14Q330.96-14.32 330.96-10.92L330.96-10.92L330.96 0L327.12 0L327.12-21.20L330.80-21.20L330.80-18.04Q331.96-19.68 333.84-20.54Q335.72-21.40 338.12-21.40L338.12-21.40Q340.60-21.40 342.52-20.40Q344.44-19.40 345.48-17.48L345.48-17.48Q346.68-19.32 348.82-20.36Q350.96-21.40 353.64-21.40L353.64-21.40Z M379.12-21.40Q383.52-21.40 385.86-19.24Q388.20-17.08 388.20-12.80L388.20-12.80L388.20 0L384.56 0L384.56-2.80Q383.60-1.32 381.82-0.54Q380.04 0.24 377.60 0.24L377.60 0.24Q374.04 0.24 371.90-1.48Q369.76-3.20 369.76-6L369.76-6Q369.76-8.80 371.80-10.50Q373.84-12.20 378.28-12.20L378.28-12.20L384.36-12.20L384.36-12.96Q384.36-15.44 382.92-16.76Q381.48-18.08 378.68-18.08L378.68-18.08Q376.80-18.08 375-17.46Q373.20-16.84 371.96-15.80L371.96-15.80L370.36-18.68Q372-20 374.28-20.70Q376.56-21.40 379.12-21.40L379.12-21.40ZM378.24-2.72Q380.44-2.72 382.04-3.70Q383.64-4.68 384.36-6.48L384.36-6.48L384.36-9.44L378.44-9.44Q373.56-9.44 373.56-6.16L373.56-6.16Q373.56-4.56 374.80-3.64Q376.04-2.72 378.24-2.72L378.24-2.72Z M408.64-21.40Q412.68-21.40 415.06-19.06Q417.44-16.72 417.44-12.20L417.44-12.20L417.44 0L413.60 0L413.60-11.76Q413.60-14.84 412.12-16.40Q410.64-17.96 407.88-17.96L407.88-17.96Q404.76-17.96 402.96-16.14Q401.16-14.32 401.16-10.92L401.16-10.92L401.16 0L397.32 0L397.32-21.20L401-21.20L401-18Q402.16-19.64 404.14-20.52Q406.12-21.40 408.64-21.40L408.64-21.40Z M442.84-29.68L446.68-29.68L446.68 0L443 0L443-3.36Q441.72-1.60 439.76-0.68Q437.80 0.24 435.44 0.24L435.44 0.24Q432.36 0.24 429.92-1.12Q427.48-2.48 426.10-4.94Q424.72-7.40 424.72-10.60L424.72-10.60Q424.72-13.80 426.10-16.24Q427.48-18.68 429.92-20.04Q432.36-21.40 435.44-21.40L435.44-21.40Q437.72-21.40 439.64-20.54Q441.56-19.68 442.84-18L442.84-18L442.84-29.68ZM435.76-3.12Q437.76-3.12 439.40-4.06Q441.04-5 441.96-6.70Q442.88-8.40 442.88-10.60L442.88-10.60Q442.88-12.80 441.96-14.50Q441.04-16.20 439.40-17.12Q437.76-18.04 435.76-18.04L435.76-18.04Q433.72-18.04 432.10-17.12Q430.48-16.20 429.54-14.50Q428.60-12.80 428.60-10.60L428.60-10.60Q428.60-8.40 429.54-6.70Q430.48-5 432.10-4.06Q433.72-3.12 435.76-3.12L435.76-3.12Z M475.12-10.48Q475.12-10.04 475.04-9.32L475.04-9.32L457.84-9.32Q458.20-6.52 460.30-4.82Q462.40-3.12 465.52-3.12L465.52-3.12Q469.32-3.12 471.64-5.68L471.64-5.68L473.76-3.20Q472.32-1.52 470.18-0.64Q468.04 0.24 465.40 0.24L465.40 0.24Q462.04 0.24 459.44-1.14Q456.84-2.52 455.42-5Q454.00-7.48 454.00-10.60L454.00-10.60Q454.00-13.68 455.38-16.16Q456.76-18.64 459.18-20.02Q461.60-21.40 464.64-21.40L464.64-21.40Q467.68-21.40 470.06-20.02Q472.44-18.64 473.78-16.16Q475.12-13.68 475.12-10.48L475.12-10.48ZM464.64-18.16Q461.88-18.16 460.02-16.48Q458.16-14.80 457.84-12.08L457.84-12.08L471.44-12.08Q471.12-14.76 469.26-16.46Q467.40-18.16 464.64-18.16L464.64-18.16Z M486.12-17.64Q487.12-19.48 489.08-20.44Q491.04-21.40 493.84-21.40L493.84-21.40L493.84-17.68Q493.52-17.72 492.96-17.72L492.96-17.72Q489.84-17.72 488.06-15.86Q486.28-14 486.28-10.56L486.28-10.56L486.28 0L482.44 0L482.44-21.20L486.12-21.20L486.12-17.64Z"/></g>
</svg>
</g><g opacity="1" transform="rotate(0 2807.2674 2146.3155)">
<svg width="342.9304" height="120" x="2807.2674" y="2146.3155" version="1.1" preserveAspectRatio="none" viewBox="1.56 -28.48 82.75999999999999 28.96">
  <g transform="matrix(1 0 0 1 0 0)" class="background"><path id="id-D6z1nYkh3" d="M22.24-6.24L22.24-14.44L28.16-14.44L28.16-3.08Q25.88-1.36 22.88-0.44Q19.88 0.48 16.84 0.48L16.84 0.48Q12.48 0.48 9-1.38Q5.52-3.24 3.54-6.54Q1.56-9.84 1.56-14L1.56-14Q1.56-18.16 3.54-21.46Q5.52-24.76 9.04-26.62Q12.56-28.48 16.96-28.48L16.96-28.48Q20.64-28.48 23.64-27.24Q26.64-26 28.68-23.64L28.68-23.64L24.52-19.80Q21.52-22.96 17.28-22.96L17.28-22.96Q14.60-22.96 12.52-21.84Q10.44-20.72 9.28-18.68Q8.12-16.64 8.12-14L8.12-14Q8.12-11.40 9.28-9.36Q10.44-7.32 12.50-6.18Q14.56-5.04 17.20-5.04L17.20-5.04Q20-5.04 22.24-6.24L22.24-6.24Z M47.56 0.48Q43.28 0.48 39.82-1.38Q36.36-3.24 34.38-6.54Q32.40-9.84 32.40-14L32.40-14Q32.40-18.16 34.38-21.46Q36.36-24.76 39.82-26.62Q43.28-28.48 47.60-28.48L47.60-28.48Q51.24-28.48 54.18-27.20Q57.12-25.92 59.12-23.52L59.12-23.52L54.96-19.68Q52.12-22.96 47.92-22.96L47.92-22.96Q45.32-22.96 43.28-21.82Q41.24-20.68 40.10-18.64Q38.96-16.60 38.96-14L38.96-14Q38.96-11.40 40.10-9.36Q41.24-7.32 43.28-6.18Q45.32-5.04 47.92-5.04L47.92-5.04Q52.12-5.04 54.96-8.36L54.96-8.36L59.12-4.52Q57.12-2.08 54.16-0.80Q51.20 0.48 47.56 0.48L47.56 0.48Z M72.44 0.48Q69.12 0.48 66.02-0.42Q62.92-1.32 61.04-2.76L61.04-2.76L63.24-7.64Q65.04-6.32 67.52-5.52Q70-4.72 72.48-4.72L72.48-4.72Q75.24-4.72 76.56-5.54Q77.88-6.36 77.88-7.72L77.88-7.72Q77.88-8.72 77.10-9.38Q76.32-10.04 75.10-10.44Q73.88-10.84 71.80-11.32L71.80-11.32Q68.60-12.08 66.56-12.84Q64.52-13.60 63.06-15.28Q61.60-16.96 61.60-19.76L61.60-19.76Q61.60-22.20 62.92-24.18Q64.24-26.16 66.90-27.32Q69.56-28.48 73.40-28.48L73.40-28.48Q76.08-28.48 78.64-27.84Q81.20-27.20 83.12-26L83.12-26L81.12-21.08Q77.24-23.28 73.36-23.28L73.36-23.28Q70.64-23.28 69.34-22.40Q68.04-21.52 68.04-20.08L68.04-20.08Q68.04-18.64 69.54-17.94Q71.04-17.24 74.12-16.56L74.12-16.56Q77.32-15.80 79.36-15.04Q81.40-14.28 82.86-12.64Q84.32-11 84.32-8.20L84.32-8.20Q84.32-5.80 82.98-3.82Q81.64-1.84 78.96-0.68Q76.28 0.48 72.44 0.48L72.44 0.48Z"/></g>
</svg>
</g><g opacity="1" transform="rotate(0 2601.2677 2116.3155)">
<svg width="179.9997" height="180" x="2601.2677" y="2116.3155" version="1.1" preserveAspectRatio="none" viewBox="0 0 179.9997 180">
  <defs><rect x="3.5999939999999997" y="3.5999939999999997" width="172.799712" height="172.800012" rx="0px" ry="0px" id="id-tBXipXk0b1707486832813"></rect></defs><use class="background icon1-str" style="stroke-width:7.199987999999999;" xlink:href="#id-tBXipXk0b1707486832813"></use>
</svg>
</g><g opacity="1" transform="rotate(0 2630.9713 2146.3155)">
<svg width="120.5926" height="120" x="2630.9713" y="2146.3155" version="1.1" preserveAspectRatio="none" viewBox="9.164340019226074 9.364758491516113 81.67262268066406 81.271240234375">
  <g transform="matrix(1 0 0 1 0 0)" class="icon1"><g><g><g><g><path d="M81.732,39.748c-0.617,0-1.195-0.383-1.413-0.998c-0.277-0.78,0.13-1.638,0.91-1.916l5.696-2.025      c0.78-0.277,1.639,0.129,1.916,0.911c0.277,0.78-0.13,1.638-0.91,1.916l-5.696,2.025C82.069,39.72,81.899,39.748,81.732,39.748z      "></path></g></g><g><g><path d="M89.339,56.593c-0.07,0-0.141-0.005-0.212-0.015l-5.985-0.845c-0.82-0.116-1.391-0.875-1.275-1.695      c0.115-0.821,0.877-1.387,1.695-1.276l5.985,0.845c0.82,0.116,1.391,0.875,1.275,1.695      C90.717,56.052,90.074,56.593,89.339,56.593z"></path></g></g><g><g><path d="M82.251,74.196c-0.305,0-0.611-0.092-0.877-0.284l-4.9-3.539c-0.672-0.485-0.823-1.422-0.338-2.094      c0.486-0.671,1.424-0.821,2.094-0.337l4.9,3.539c0.672,0.485,0.823,1.422,0.338,2.094C83.175,73.98,82.716,74.196,82.251,74.196      z"></path></g></g><g><g><path d="M67.803,86.48c-0.55,0-1.08-0.304-1.343-0.83l-2.702-5.408c-0.37-0.741-0.069-1.642,0.671-2.012      c0.742-0.369,1.643-0.07,2.013,0.671l2.702,5.408c0.37,0.741,0.069,1.642-0.671,2.012C68.257,86.429,68.028,86.48,67.803,86.48z      "></path></g></g><g><g><path d="M49.299,90.636c-0.011,0-0.021,0-0.031,0c-0.828-0.016-1.486-0.701-1.47-1.529l0.12-6.044      c0.017-0.829,0.71-1.494,1.53-1.47c0.828,0.016,1.486,0.701,1.47,1.529l-0.12,6.044C50.781,89.984,50.113,90.636,49.299,90.636z      "></path></g></g><g><g><path d="M30.969,85.745c-0.245,0-0.494-0.061-0.724-0.187c-0.726-0.4-0.989-1.313-0.589-2.038l2.92-5.294      c0.401-0.725,1.315-0.988,2.038-0.589c0.726,0.4,0.989,1.313,0.589,2.038l-2.92,5.294C32.01,85.464,31.497,85.745,30.969,85.745      z"></path></g></g><g><g><path d="M17.03,72.884c-0.486,0-0.963-0.236-1.252-0.672c-0.457-0.69-0.268-1.621,0.423-2.079l5.04-3.338      c0.689-0.457,1.62-0.27,2.079,0.422c0.457,0.69,0.268,1.621-0.423,2.079l-5.04,3.338C17.603,72.803,17.315,72.884,17.03,72.884z      "></path></g></g><g><g><path d="M10.662,55.012c-0.761,0-1.413-0.577-1.49-1.35c-0.083-0.824,0.518-1.56,1.343-1.643l6.015-0.604      c0.828-0.082,1.56,0.519,1.642,1.343c0.083,0.824-0.518,1.56-1.343,1.643l-6.015,0.604      C10.763,55.009,10.712,55.012,10.662,55.012z"></path></g></g><g><g><path d="M18.925,38.484c-0.187,0-0.376-0.035-0.56-0.108l-5.61-2.254c-0.769-0.309-1.142-1.183-0.832-1.951      c0.31-0.769,1.184-1.139,1.951-0.833l5.61,2.254c0.769,0.309,1.142,1.183,0.832,1.951      C20.081,38.128,19.519,38.484,18.925,38.484z"></path></g></g><g><g><path d="M28.337,25.449c-0.425,0-0.846-0.179-1.143-0.527l-3.922-4.6c-0.537-0.63-0.462-1.577,0.168-2.115      c0.634-0.538,1.579-0.46,2.115,0.168l3.922,4.6c0.537,0.63,0.462,1.577-0.168,2.115C29.026,25.331,28.681,25.449,28.337,25.449z      "></path></g></g><g><g><path d="M42.705,18.264c-0.687,0-1.306-0.475-1.463-1.172l-1.323-5.899c-0.181-0.808,0.327-1.61,1.136-1.792      c0.809-0.18,1.609,0.328,1.792,1.136l1.323,5.899c0.181,0.808-0.327,1.61-1.136,1.792      C42.924,18.251,42.813,18.264,42.705,18.264z"></path></g></g><g><g><path d="M58.79,18.581c-0.128,0-0.258-0.017-0.388-0.051c-0.8-0.213-1.276-1.035-1.063-1.835l1.557-5.841      c0.213-0.8,1.033-1.278,1.836-1.063c0.8,0.213,1.276,1.035,1.063,1.835l-1.557,5.841C60.06,18.138,59.453,18.581,58.79,18.581z"></path></g></g><g><g><path d="M72.85,26.356c-0.364,0-0.729-0.132-1.018-0.398c-0.608-0.562-0.646-1.511-0.084-2.12l4.102-4.441      c0.561-0.61,1.512-0.646,2.119-0.084c0.608,0.562,0.646,1.511,0.084,2.12l-4.102,4.441      C73.656,26.194,73.253,26.356,72.85,26.356z"></path></g></g></g><g><g><path d="M27.687,70.299c-0.828,0-1.5-0.671-1.5-1.5V31.857c0-0.829,0.672-1.5,1.5-1.5s1.5,0.671,1.5,1.5v36.942     C29.187,69.628,28.515,70.299,27.687,70.299z"></path></g><g><path d="M49.851,70.299c-0.119,0-0.238-0.014-0.356-0.043c-0.15-0.037-0.293-0.097-0.422-0.175     c-0.248-0.144-4.388-2.468-10.265-2.468c-0.001,0-0.001,0-0.001,0l0,0c-3.553,0-7.044,0.838-10.377,2.492     c-0.011,0.005-0.021,0.01-0.03,0.015c-0.002,0.001-0.003,0.002-0.005,0.002l0,0c-0.001,0,0.009,0.003-0.003,0.001     c0,0-0.002,0.002-0.002,0.001c-0.001,0-0.002,0-0.003,0.001l0,0c-0.001,0-0.001,0.001-0.002,0.001l0,0     c-0.001,0-0.002,0-0.003,0.001l0,0c-0.74,0.357-1.648,0.063-2.016-0.67c-0.109-0.221-0.162-0.455-0.162-0.684     c0-0.541,0.292-1.056,0.812-1.316c0.001,0,0.035-0.018,0.045-0.022c0.001,0,0.001-0.001,0.002-0.001l0,0     c3.762-1.872,7.713-2.821,11.743-2.821h0.001l0,0c0,0,0,0,0.001,0l0,0c4.128,0,7.479,0.998,9.545,1.823V31.857     c0-0.829,0.672-1.5,1.5-1.5s1.5,0.671,1.5,1.5v36.929c0,0.004,0,0.009,0,0.014c0,0.081-0.007,0.163-0.02,0.244     c-0.045,0.271-0.162,0.519-0.331,0.72c-0.095,0.112-0.203,0.208-0.321,0.286c-0.215,0.143-0.47,0.232-0.744,0.247     C49.908,70.299,49.88,70.299,49.851,70.299z"></path></g><g><path d="M27.688,33.357c-0.55,0-1.08-0.304-1.343-0.83c-0.37-0.741-0.07-1.642,0.671-2.013     c12.682-6.342,23.168-0.208,23.608,0.056c0.711,0.426,0.941,1.348,0.515,2.058c-0.426,0.709-1.345,0.939-2.055,0.516l0,0     c-0.384-0.229-9.559-5.53-20.727,0.054C28.142,33.306,27.913,33.357,27.688,33.357z"></path></g></g><g><g><path d="M49.853,70.299c-0.828,0-1.5-0.671-1.5-1.5V31.857c0-0.829,0.672-1.5,1.5-1.5s1.5,0.671,1.5,1.5v36.942     C51.353,69.628,50.681,70.299,49.853,70.299z"></path></g><g><path d="M72.016,70.299c-0.119,0-0.24-0.014-0.358-0.043c-0.15-0.037-0.291-0.097-0.42-0.175c0,0,0,0,0,0     c-0.253-0.146-4.392-2.468-10.266-2.468l0,0l0,0c-3.564,0-7.067,0.844-10.41,2.509c-0.001,0-0.002,0-0.003,0.001l0,0     c-0.002,0-0.004,0.001-0.003,0.002c-0.001,0-0.003-0.004-0.003,0.001c0,0-0.001,0.001-0.003,0.001c0,0-0.001,0-0.001,0     c-0.001,0-0.001,0-0.002,0.001c0,0,0,0-0.001,0l-0.002,0.001c-0.001,0-0.001,0.001-0.002,0.001c0,0,0,0-0.001,0     c0,0-0.002,0.001-0.002,0.001c-0.001,0-0.002,0.001-0.002,0.001l-0.001,0c-0.001,0-0.001,0-0.002,0.001c0,0,0.005,0-0.003,0.001     v0c-0.001,0-0.002,0-0.002,0.001h-0.001c-0.001,0-0.001,0.001-0.002,0.001l0,0c-0.736,0.34-1.632,0.048-1.996-0.68     c-0.109-0.22-0.162-0.453-0.162-0.682c0-0.542,0.293-1.059,0.813-1.32c0.001,0,0.031-0.016,0.04-0.02     c0.001,0,0.002,0,0.002-0.001l0,0l0,0l0,0l0,0l0,0c3.763-1.874,7.715-2.824,11.747-2.824c0,0,0,0,0.001,0l0,0l0,0h0.001     c4.127,0,7.479,0.998,9.545,1.823V31.857c0-0.829,0.672-1.5,1.5-1.5s1.5,0.671,1.5,1.5v36.929c0,0.004,0,0.009,0,0.013     c0,0.08-0.006,0.161-0.02,0.241c-0.044,0.273-0.161,0.521-0.332,0.724c-0.095,0.114-0.205,0.21-0.325,0.289     c-0.214,0.141-0.465,0.228-0.735,0.244C72.076,70.298,72.046,70.299,72.016,70.299z"></path></g><g><path d="M49.854,33.357c-0.55,0-1.08-0.304-1.343-0.83c-0.37-0.741-0.07-1.642,0.671-2.013     c12.682-6.341,23.168-0.208,23.607,0.056c0.711,0.426,0.941,1.347,0.515,2.058c-0.426,0.709-1.345,0.941-2.055,0.517l0,0     c-0.385-0.228-9.563-5.53-20.726,0.054C50.308,33.306,50.079,33.357,49.854,33.357z"></path></g></g><g><path d="M38.769,42.761c-1.382,0-2.507-1.125-2.507-2.507c0-1.383,1.125-2.508,2.507-2.508c1.384,0,2.509,1.125,2.509,2.508    C41.277,41.636,40.152,42.761,38.769,42.761z M38.769,39.761c-0.271,0-0.491,0.221-0.491,0.493s0.221,0.492,0.491,0.492    c0.271,0,0.493-0.221,0.493-0.492S39.04,39.761,38.769,39.761z"></path></g><g><path d="M60.935,42.761c-1.383,0-2.508-1.125-2.508-2.507c0-1.383,1.125-2.508,2.508-2.508c1.382,0,2.507,1.125,2.507,2.508    C63.441,41.636,62.316,42.761,60.935,42.761z M60.935,39.761c-0.271,0-0.493,0.221-0.493,0.493s0.222,0.492,0.493,0.492    s0.492-0.221,0.492-0.492S61.206,39.761,60.935,39.761z"></path></g><g><path d="M49.852,60.896c-5.271,0-9.561-4.289-9.561-9.56c0-0.829,0.672-1.5,1.5-1.5s1.5,0.671,1.5,1.5    c0,3.617,2.943,6.56,6.561,6.56s6.561-2.943,6.561-6.56c0-0.829,0.672-1.5,1.5-1.5s1.5,0.671,1.5,1.5    C59.412,56.607,55.123,60.896,49.852,60.896z"></path></g></g></g>
</svg>
</g></svg></svg>