<svg version="1.1" preserveAspectRatio="none" xmlns="http://www.w3.org/2000/svg" width="500" height="500" viewBox="0 0 500 500"><rect width="100%" height="100%" fill="#101010" fill-opacity="1"/><svg viewBox="92.5749 144 314.8502 212" width="333" height="224.22091521618856" x="83.5px" y="137.8895px" xmlns="http://www.w3.org/2000/svg" xmlns:xlink="http://www.w3.org/1999/xlink" preserveAspectRatio="none"><defs></defs><style>.icon1 {fill:#EBEBEB;fill-opacity:1;}.icon2 {fill:#D4D4D4;fill-opacity:1;}.icon3 {fill:#A0A0A0;fill-opacity:1;}.icon3-str {stroke:#A0A0A0;stroke-opacity:1;}</style><g opacity="1" transform="rotate(0 92.5749 338)">
<svg width="314.8502" height="18" x="92.5749" y="338" version="1.1" preserveAspectRatio="none" viewBox="0 -28.32 500.96000000000004 28.64">
  <g transform="matrix(1 0 0 1 0 0)" class="icon3"><path id="id-6izo4zJp19" d="M33.96-28Q34.36-28 34.36-27.60L34.36-27.60L34.36-25.08Q34.36-24.68 33.96-24.68L33.96-24.68L28.72-24.68Q28.56-24.68 28.56-24.52L28.56-24.52L28.56-0.40Q28.56 0 28.16 0L28.16 0L25.12 0Q24.72 0 24.72-0.40L24.72-0.40L24.72-24.52Q24.72-24.68 24.56-24.68L24.56-24.68L19.60-24.68Q19.20-24.68 19.20-25.08L19.20-25.08L19.20-27.60Q19.20-28 19.60-28L19.60-28L33.96-28Z M58.24-27.60Q58.24-28 58.64-28L58.64-28L61.68-28Q62.08-28 62.08-27.60L62.08-27.60L62.08-0.40Q62.08 0 61.68 0L61.68 0L58.64 0Q58.24 0 58.24-0.40L58.24-0.40L58.24-12.20Q58.24-12.36 58.08-12.36L58.08-12.36L52.04-12.36Q51.88-12.36 51.88-12.20L51.88-12.20L51.88-0.40Q51.88 0 51.48 0L51.48 0L48.44 0Q48.04 0 48.04-0.40L48.04-0.40L48.04-27.60Q48.04-28 48.44-28L48.44-28L51.48-28Q51.88-28 51.88-27.60L51.88-27.60L51.88-15.84Q51.88-15.68 52.04-15.68L52.04-15.68L58.08-15.68Q58.24-15.68 58.24-15.84L58.24-15.84L58.24-27.60Z M90.20-25.08Q90.20-24.68 89.80-24.68L89.80-24.68L80.80-24.68Q80.64-24.68 80.64-24.52L80.64-24.52L80.64-15.84Q80.64-15.68 80.80-15.68L80.80-15.68L86.32-15.68Q86.72-15.68 86.72-15.28L86.72-15.28L86.72-12.76Q86.72-12.36 86.32-12.36L86.32-12.36L80.80-12.36Q80.64-12.36 80.64-12.20L80.64-12.20L80.64-3.48Q80.64-3.32 80.80-3.32L80.80-3.32L89.80-3.32Q90.20-3.32 90.20-2.92L90.20-2.92L90.20-0.40Q90.20 0 89.80 0L89.80 0L77.20 0Q76.80 0 76.80-0.40L76.80-0.40L76.80-27.60Q76.80-28 77.20-28L77.20-28L89.80-28Q90.20-28 90.20-27.60L90.20-27.60L90.20-25.08Z M128.72 0.32Q125.48 0.32 123.50-1.66Q121.52-3.64 121.52-6.92L121.52-6.92L121.52-21.12Q121.52-24.40 123.50-26.36Q125.48-28.32 128.72-28.32L128.72-28.32Q132-28.32 133.98-26.36Q135.96-24.40 135.96-21.12L135.96-21.12L135.96-20.48Q135.96-20.08 135.56-20.08L135.56-20.08L132.52-19.92Q132.12-19.92 132.12-20.32L132.12-20.32L132.12-21.36Q132.12-23 131.18-24Q130.24-25 128.72-25L128.72-25Q127.20-25 126.28-24Q125.36-23 125.36-21.36L125.36-21.36L125.36-6.64Q125.36-5 126.28-4Q127.20-3 128.72-3L128.72-3Q130.24-3 131.18-4Q132.12-5 132.12-6.64L132.12-6.64L132.12-7.68Q132.12-8.08 132.52-8.08L132.52-8.08L135.56-7.92Q135.96-7.92 135.96-7.52L135.96-7.52L135.96-6.92Q135.96-3.64 133.98-1.66Q132 0.32 128.72 0.32L128.72 0.32Z M156.88 0.32Q153.60 0.32 151.60-1.68Q149.60-3.68 149.60-7L149.60-7L149.60-20.96Q149.60-24.28 151.60-26.30Q153.60-28.32 156.88-28.32L156.88-28.32Q160.20-28.32 162.22-26.30Q164.24-24.28 164.24-20.96L164.24-20.96L164.24-7Q164.24-3.68 162.22-1.68Q160.20 0.32 156.88 0.32L156.88 0.32ZM156.88-3Q158.48-3 159.44-4.06Q160.40-5.12 160.40-6.84L160.40-6.84L160.40-21.16Q160.40-22.88 159.44-23.94Q158.48-25 156.88-25L156.88-25Q155.32-25 154.38-23.94Q153.44-22.88 153.44-21.16L153.44-21.16L153.44-6.84Q153.44-5.12 154.38-4.06Q155.32-3 156.88-3L156.88-3Z M179.04 0Q178.64 0 178.64-0.40L178.64-0.40L178.64-27.60Q178.64-28 179.04-28L179.04-28L185.60-28Q188.92-28 190.88-25.96Q192.84-23.92 192.84-20.44L192.84-20.44L192.84-7.56Q192.84-4.08 190.88-2.04Q188.92 0 185.60 0L185.60 0L179.04 0ZM182.48-3.48Q182.48-3.32 182.64-3.32L182.64-3.32L185.56-3.36Q187.08-3.36 188-4.54Q188.92-5.72 188.96-7.76L188.96-7.76L188.96-20.24Q188.96-22.28 188.04-23.48Q187.12-24.68 185.56-24.68L185.56-24.68L182.64-24.68Q182.48-24.68 182.48-24.52L182.48-24.52L182.48-3.48Z M220.56-25.08Q220.56-24.68 220.16-24.68L220.16-24.68L211.16-24.68Q211.00-24.68 211.00-24.52L211.00-24.52L211.00-15.84Q211.00-15.68 211.16-15.68L211.16-15.68L216.68-15.68Q217.08-15.68 217.08-15.28L217.08-15.28L217.08-12.76Q217.08-12.36 216.68-12.36L216.68-12.36L211.16-12.36Q211.00-12.36 211.00-12.20L211.00-12.20L211.00-3.48Q211.00-3.32 211.16-3.32L211.16-3.32L220.16-3.32Q220.56-3.32 220.56-2.92L220.56-2.92L220.56-0.40Q220.56 0 220.16 0L220.16 0L207.56 0Q207.16 0 207.16-0.40L207.16-0.40L207.16-27.60Q207.16-28 207.56-28L207.56-28L220.16-28Q220.56-28 220.56-27.60L220.56-27.60L220.56-25.08Z M259.08 0.32Q255.84 0.32 253.86-1.66Q251.88-3.64 251.88-6.92L251.88-6.92L251.88-21.12Q251.88-24.40 253.86-26.36Q255.84-28.32 259.08-28.32L259.08-28.32Q262.36-28.32 264.34-26.36Q266.32-24.40 266.32-21.12L266.32-21.12L266.32-20.48Q266.32-20.08 265.92-20.08L265.92-20.08L262.88-19.92Q262.48-19.92 262.48-20.32L262.48-20.32L262.48-21.36Q262.48-23 261.54-24Q260.60-25 259.08-25L259.08-25Q257.56-25 256.64-24Q255.72-23 255.72-21.36L255.72-21.36L255.72-6.64Q255.72-5 256.64-4Q257.56-3 259.08-3L259.08-3Q260.60-3 261.54-4Q262.48-5 262.48-6.64L262.48-6.64L262.48-7.68Q262.48-8.08 262.88-8.08L262.88-8.08L265.92-7.92Q266.32-7.92 266.32-7.52L266.32-7.52L266.32-6.92Q266.32-3.64 264.34-1.66Q262.36 0.32 259.08 0.32L259.08 0.32Z M287.24 0.32Q283.96 0.32 281.96-1.68Q279.96-3.68 279.96-7L279.96-7L279.96-20.96Q279.96-24.28 281.96-26.30Q283.96-28.32 287.24-28.32L287.24-28.32Q290.56-28.32 292.58-26.30Q294.60-24.28 294.60-20.96L294.60-20.96L294.60-7Q294.60-3.68 292.58-1.68Q290.56 0.32 287.24 0.32L287.24 0.32ZM287.24-3Q288.84-3 289.80-4.06Q290.76-5.12 290.76-6.84L290.76-6.84L290.76-21.16Q290.76-22.88 289.80-23.94Q288.84-25 287.24-25L287.24-25Q285.68-25 284.74-23.94Q283.80-22.88 283.80-21.16L283.80-21.16L283.80-6.84Q283.80-5.12 284.74-4.06Q285.68-3 287.24-3L287.24-3Z M309.36 0Q308.96 0 308.96-0.40L308.96-0.40L308.96-27.60Q308.96-28 309.36-28L309.36-28L312.40-28Q312.72-28 312.84-27.68L312.84-27.68L316.92-17.96Q316.96-17.88 317.04-17.88Q317.12-17.88 317.16-17.96L317.16-17.96L321.32-27.68Q321.44-28 321.76-28L321.76-28L324.80-28Q325.20-28 325.20-27.60L325.20-27.60L325.20-0.40Q325.20 0 324.80 0L324.80 0L321.76 0Q321.36 0 321.36-0.40L321.36-0.40L321.36-18.52Q321.36-18.64 321.30-18.64Q321.24-18.64 321.16-18.56L321.16-18.56L317.44-10.64Q317.32-10.36 317.12-10.36L317.12-10.36Q316.84-10.36 316.72-10.64L316.72-10.64L313-18.60Q312.92-18.68 312.86-18.68Q312.80-18.68 312.80-18.56L312.80-18.56L312.80-0.40Q312.80 0 312.40 0L312.40 0L309.36 0Z M340.48 0Q340.08 0 340.08-0.40L340.08-0.40L340.08-27.60Q340.08-28 340.48-28L340.48-28L343.52-28Q343.84-28 343.96-27.68L343.96-27.68L348.04-17.96Q348.08-17.88 348.16-17.88Q348.24-17.88 348.28-17.96L348.28-17.96L352.44-27.68Q352.56-28 352.88-28L352.88-28L355.92-28Q356.32-28 356.32-27.60L356.32-27.60L356.32-0.40Q356.32 0 355.92 0L355.92 0L352.88 0Q352.48 0 352.48-0.40L352.48-0.40L352.48-18.52Q352.48-18.64 352.42-18.64Q352.36-18.64 352.28-18.56L352.28-18.56L348.56-10.64Q348.44-10.36 348.24-10.36L348.24-10.36Q347.96-10.36 347.84-10.64L347.84-10.64L344.12-18.60Q344.04-18.68 343.98-18.68Q343.92-18.68 343.92-18.56L343.92-18.56L343.92-0.40Q343.92 0 343.52 0L343.52 0L340.48 0Z M383.36 0Q383 0 382.92-0.36L382.92-0.36L382.04-4.96Q382.04-5.04 381.98-5.08Q381.92-5.12 381.84-5.12L381.84-5.12L375.40-5.12Q375.32-5.12 375.26-5.08Q375.20-5.04 375.20-4.96L375.20-4.96L374.28-0.36Q374.24 0 373.84 0L373.84 0L370.80 0Q370.60 0 370.50-0.12Q370.40-0.24 370.44-0.44L370.44-0.44L376.40-27.64Q376.48-28 376.84-28L376.84-28L380.36-28Q380.76-28 380.80-27.64L380.80-27.64L386.84-0.44L386.84-0.36Q386.84 0 386.48 0L386.48 0L383.36 0ZM375.88-8.32Q375.88-8.16 376-8.16L376-8.16L381.28-8.16Q381.40-8.16 381.40-8.32L381.40-8.32L378.76-22Q378.72-22.12 378.68-22.12Q378.64-22.12 378.60-22L378.60-22L375.88-8.32Z M400.96 0Q400.56 0 400.56-0.40L400.56-0.40L400.56-27.60Q400.56-28 400.96-28L400.96-28L404.04-28Q404.36-28 404.48-27.68L404.48-27.68L411.60-10.04Q411.64-9.92 411.72-9.94Q411.80-9.96 411.80-10.08L411.80-10.08L411.80-27.60Q411.80-28 412.20-28L412.20-28L415.20-28Q415.60-28 415.60-27.60L415.60-27.60L415.60-0.40Q415.60 0 415.20 0L415.20 0L412.08 0Q411.76 0 411.64-0.32L411.64-0.32L404.52-17.96Q404.48-18.08 404.40-18.08Q404.32-18.08 404.32-17.96L404.32-17.96L404.36-0.40Q404.36 0 403.96 0L403.96 0L400.96 0Z M430.96 0Q430.56 0 430.56-0.40L430.56-0.40L430.56-27.60Q430.56-28 430.96-28L430.96-28L437.52-28Q440.84-28 442.80-25.96Q444.76-23.92 444.76-20.44L444.76-20.44L444.76-7.56Q444.76-4.08 442.80-2.04Q440.84 0 437.52 0L437.52 0L430.96 0ZM434.40-3.48Q434.40-3.32 434.56-3.32L434.56-3.32L437.48-3.36Q439-3.36 439.92-4.54Q440.84-5.72 440.88-7.76L440.88-7.76L440.88-20.24Q440.88-22.28 439.96-23.48Q439.04-24.68 437.48-24.68L437.48-24.68L434.56-24.68Q434.40-24.68 434.40-24.52L434.40-24.52L434.40-3.48Z M472.48-25.08Q472.48-24.68 472.08-24.68L472.08-24.68L463.08-24.68Q462.92-24.68 462.92-24.52L462.92-24.52L462.92-15.84Q462.92-15.68 463.08-15.68L463.08-15.68L468.60-15.68Q469.00-15.68 469.00-15.28L469.00-15.28L469.00-12.76Q469.00-12.36 468.60-12.36L468.60-12.36L463.08-12.36Q462.92-12.36 462.92-12.20L462.92-12.20L462.92-3.48Q462.92-3.32 463.08-3.32L463.08-3.32L472.08-3.32Q472.48-3.32 472.48-2.92L472.48-2.92L472.48-0.40Q472.48 0 472.08 0L472.08 0L459.48 0Q459.08 0 459.08-0.40L459.08-0.40L459.08-27.60Q459.08-28 459.48-28L459.48-28L472.08-28Q472.48-28 472.48-27.60L472.48-27.60L472.48-25.08Z M497.48 0Q497.12 0 497-0.32L497-0.32L493.28-12.32Q493.24-12.44 493.12-12.44L493.12-12.44L490.36-12.44Q490.20-12.44 490.20-12.28L490.20-12.28L490.20-0.40Q490.20 0 489.80 0L489.80 0L486.76 0Q486.36 0 486.36-0.40L486.36-0.40L486.36-27.64Q486.36-28.04 486.76-28.04L486.76-28.04L493.92-28.04Q495.96-28.04 497.52-27.04Q499.08-26.04 499.94-24.22Q500.80-22.40 500.80-20.08L500.80-20.08Q500.80-17.56 499.74-15.70Q498.68-13.84 496.88-13.04L496.88-13.04Q496.76-12.92 496.80-12.80L496.80-12.80L500.92-0.44L500.96-0.28Q500.96 0 500.60 0L500.60 0L497.48 0ZM490.36-24.72Q490.20-24.72 490.20-24.56L490.20-24.56L490.20-15.60Q490.20-15.44 490.36-15.44L490.36-15.44L493.32-15.44Q494.96-15.44 495.96-16.70Q496.96-17.96 496.96-20.04L496.96-20.04Q496.96-22.20 495.96-23.46Q494.96-24.72 493.32-24.72L493.32-24.72L490.36-24.72Z"/></g>
</svg>
</g><g opacity="1" transform="rotate(0 214.4284 144)">
<svg width="71.1431" height="84" x="214.4284" y="144" version="1.1" preserveAspectRatio="none" viewBox="32.458580017089844 19.999998092651367 135.3414306640625 159.79998779296875">
  <g transform="matrix(-1 0 0 1 200.2585906982422 0)"><g><path d="M167.5 109.2v-.5l-40.6-70c-.2-.3-.5-.5-.8-.5H94L75.4 20.3s-.1 0-.1-.1l-.1-.1c-.1 0-.2-.1-.3-.1h-.5c-.1 0-.1 0-.2.1L44.4 38.3c-.1.1-.2.1-.2.2-.2.2-.2.3-.2.4L32.5 89.7v.4c-.1.2 0 .5.1.7l41.2 70.4c0 .1.1.1.1.2.1.1.3.2.4.2H110l15.3 17.9c.1.1.2.2.3.2h.1c.1 0 .2.1.4.1h.3c.1 0 .1 0 .2-.1h.1l29.8-18.2.1-.1c.1 0 .1-.1.2-.1l.1-.1c0-.1.1-.1.1-.2v-.1l10.8-51.8c-.3.2-.3.2-.3.1zM155 159.9h-16.8l26.2-45.2-9.4 45.2zm-2.6 1.9l-23.7 14.4 8.4-14.4h15.3zM99 146.2L36.2 91l126.7 18.5L99 146.2zm-24 13.4L36.6 93.9l60.6 53.3L75 159.6zm-29.5-119l12.2 7L35.6 85l9.9-44.4zM60.4 47l4.1-6.9h28.8l67.5 64.8L60.4 47zm100.8 60.3L35.5 88.9l23.9-40.3 101.8 58.7zM58.7 46l-10.2-5.9h13.7L58.7 46zm-10.4-7.8l23.6-14.4-8.5 14.4H48.3zm116.1 72.7l-28.4 49h-25.1l-10.5-12.3 64-36.7zm-39-70.8l36.9 63.6L96 40.1h29.4zm-59.8-1.9l9.3-15.7 16.4 15.7H65.6zm12.8 121.7l20.3-11.3 9.7 11.3h-30zm56.5 1.9l-9 15.6-13.3-15.6h22.3z" data-color="1" class="icon1"></path></g></g>
</svg>
</g><g opacity="1" transform="rotate(0 189.5616 254)">
<svg width="120.8767" height="60" x="189.5616" y="254" version="1.1" preserveAspectRatio="none" viewBox="1.68 -28.32 57.68 28.64">
  <g transform="matrix(1 0 0 1 0 0)" class="icon1"><path id="id-D6z1nYkh3" d="M9.20 0.32Q5.80 0.32 3.74-1.66Q1.68-3.64 1.68-6.92L1.68-6.92L1.68-21.08Q1.68-24.36 3.74-26.34Q5.80-28.32 9.20-28.32L9.20-28.32Q12.60-28.32 14.70-26.34Q16.80-24.36 16.80-21.04L16.80-21.04L16.80-19.48Q16.80-19.28 16.66-19.14Q16.52-19 16.32-19L16.32-19L12.64-19Q12.44-19 12.30-19.14Q12.16-19.28 12.16-19.48L12.16-19.48L12.16-21.12Q12.16-22.56 11.34-23.44Q10.52-24.32 9.20-24.32L9.20-24.32Q7.88-24.32 7.08-23.44Q6.28-22.56 6.28-21.12L6.28-21.12L6.28-6.88Q6.28-5.44 7.08-4.56Q7.88-3.68 9.20-3.68L9.20-3.68Q10.52-3.68 11.34-4.56Q12.16-5.44 12.16-6.88L12.16-6.88L12.16-10.72Q12.16-10.92 11.96-10.92L11.96-10.92L9.52-10.92Q9.32-10.92 9.18-11.06Q9.04-11.20 9.04-11.40L9.04-11.40L9.04-14.32Q9.04-14.52 9.18-14.66Q9.32-14.80 9.52-14.80L9.52-14.80L16.32-14.80Q16.52-14.80 16.66-14.66Q16.80-14.52 16.80-14.32L16.80-14.32L16.80-6.92Q16.80-3.64 14.70-1.66Q12.60 0.32 9.20 0.32L9.20 0.32Z M30.68 0.32Q27.28 0.32 25.22-1.74Q23.16-3.80 23.16-7.20L23.16-7.20L23.16-20.84Q23.16-24.28 25.22-26.30Q27.28-28.32 30.68-28.32L30.68-28.32Q34.12-28.32 36.20-26.30Q38.28-24.28 38.28-20.84L38.28-20.84L38.28-20.36Q38.28-20.16 38.14-20Q38-19.84 37.80-19.84L37.80-19.84L34.08-19.68Q33.60-19.68 33.60-20.16L33.60-20.16L33.60-21.16Q33.60-22.56 32.80-23.44Q32-24.32 30.68-24.32L30.68-24.32Q29.40-24.32 28.60-23.44Q27.80-22.56 27.80-21.16L27.80-21.16L27.80-6.84Q27.80-5.44 28.60-4.56Q29.40-3.68 30.68-3.68L30.68-3.68Q32-3.68 32.80-4.56Q33.60-5.44 33.60-6.84L33.60-6.84L33.60-7.84Q33.60-8.04 33.74-8.18Q33.88-8.32 34.08-8.32L34.08-8.32L37.80-8.16Q38-8.16 38.14-8.02Q38.28-7.88 38.28-7.68L38.28-7.68L38.28-7.20Q38.28-3.80 36.20-1.74Q34.12 0.32 30.68 0.32L30.68 0.32Z M51.92 0.32Q48.64 0.32 46.60-1.70Q44.56-3.72 44.56-6.92L44.56-6.92L44.56-8.04Q44.56-8.24 44.70-8.38Q44.84-8.52 45.04-8.52L45.04-8.52L48.64-8.52Q48.84-8.52 48.98-8.38Q49.12-8.24 49.12-8.04L49.12-8.04L49.12-7.16Q49.12-5.60 49.92-4.64Q50.72-3.68 51.92-3.68L51.92-3.68Q53.16-3.68 53.96-4.58Q54.76-5.48 54.76-6.96L54.76-6.96Q54.76-7.96 54.32-8.74Q53.88-9.52 53.10-10.20Q52.32-10.88 50.56-12.16L50.56-12.16Q48.56-13.60 47.34-14.72Q46.12-15.84 45.30-17.42Q44.48-19 44.48-21.08L44.48-21.08Q44.48-24.40 46.48-26.36Q48.48-28.32 51.72-28.32L51.72-28.32Q55.08-28.32 57.12-26.26Q59.16-24.20 59.16-20.80L59.16-20.80L59.16-19.84Q59.16-19.64 59.02-19.50Q58.88-19.36 58.68-19.36L58.68-19.36L55.04-19.36Q54.84-19.36 54.70-19.50Q54.56-19.64 54.56-19.84L54.56-19.84L54.56-20.88Q54.56-22.44 53.78-23.38Q53.00-24.32 51.72-24.32L51.72-24.32Q50.56-24.32 49.80-23.46Q49.04-22.60 49.04-21.08L49.04-21.08Q49.04-19.64 49.86-18.64Q50.68-17.64 53.08-15.88L53.08-15.88Q55.52-14.04 56.76-12.92Q58.00-11.80 58.68-10.44Q59.36-9.08 59.36-7.20L59.36-7.20Q59.36-3.80 57.30-1.74Q55.24 0.32 51.92 0.32L51.92 0.32Z"/></g>
</svg>
</g></svg></svg>