<svg version="1.1" preserveAspectRatio="none" xmlns="http://www.w3.org/2000/svg" width="500" height="500" viewBox="0 0 500 500"><rect width="100%" height="100%" fill="#F5F5F5" fill-opacity="1"/><svg viewBox="148.5238 608.3566 421.6576 361.7406" width="333" height="285.6811303768745" x="83.5px" y="107.1594px" xmlns="http://www.w3.org/2000/svg" xmlns:xlink="http://www.w3.org/1999/xlink" preserveAspectRatio="none"><defs></defs><style>.companyName {fill:#F7BFB2;fill-opacity:1;}.icon1 {fill:#FDC8BC;fill-opacity:1;}.icon2 {fill:#D2BB7A;fill-opacity:1;}.icon3 {fill:#8F8F8F;fill-opacity:1;}.icon3-str {stroke:#8F8F8F;stroke-opacity:1;}.text {fill:#777777;fill-opacity:1;}</style><g opacity="1" transform="rotate(0 148.5238 941.2972)">
<svg width="421.6576" height="28.8" x="148.5238" y="941.2972" version="1.1" preserveAspectRatio="none" viewBox="0 -30.4 449.71999999999997 30.72">
  <g transform="matrix(1 0 0 1 0 0)" class="text"><path id="id-6izo4zJp19" d="M18.52-28.40L37.12-28.40L37.12-26.52L28.76-26.52L28.76 0L26.80 0L26.80-26.52L18.52-26.52L18.52-28.40Z M55.32-16.08Q57.48-16.08 58.84-14.78Q60.20-13.48 60.28-11.40L60.28-11.40L60.28 0L58.36 0L58.36-10.88Q58.28-12.44 57.36-13.42Q56.44-14.40 54.72-14.44L54.72-14.44Q53.16-14.44 51.80-13.64Q50.44-12.84 49.62-11.46Q48.80-10.08 48.80-8.40L48.80-8.40L48.80 0L46.92 0L46.92-30.40L48.76-30.40L48.76-12.40Q49.64-14 51.40-15.04Q53.16-16.08 55.32-16.08L55.32-16.08Z M78.24-1.32Q80.76-1.32 82.80-3.04L82.80-3.04L83.76-1.68Q82.60-0.76 81.14-0.22Q79.68 0.32 78.20 0.32L78.20 0.32Q75.80 0.32 73.90-0.76Q72-1.84 70.94-3.70Q69.88-5.56 69.88-7.88L69.88-7.88Q69.88-10.12 71-12.02Q72.12-13.92 74.04-15.04Q75.96-16.16 78.24-16.16L78.24-16.16Q80.96-16.16 82.88-14.56Q84.80-12.96 85.68-10.24L85.68-10.24L72.32-5.08Q73.08-3.40 74.66-2.36Q76.24-1.32 78.24-1.32L78.24-1.32ZM78.12-14.56Q76.36-14.56 74.88-13.68Q73.40-12.80 72.56-11.30Q71.72-9.80 71.72-7.96L71.72-7.96Q71.72-7.12 71.88-6.48L71.88-6.48L83.40-11Q82.64-12.60 81.28-13.58Q79.92-14.56 78.12-14.56L78.12-14.56Z M123.24-1.52Q122.16-0.64 120.78-0.16Q119.40 0.32 117.96 0.32L117.96 0.32Q115.60 0.32 113.70-0.74Q111.80-1.80 110.72-3.66Q109.64-5.52 109.64-7.84L109.64-7.84Q109.64-10.16 110.74-12.02Q111.84-13.88 113.72-14.94Q115.60-16 117.80-16L117.80-16Q121.04-16 123.28-14.16L123.28-14.16L122.28-12.88Q120.28-14.44 117.92-14.44L117.92-14.44Q116.16-14.44 114.70-13.56Q113.24-12.68 112.38-11.16Q111.52-9.64 111.52-7.84L111.52-7.84Q111.52-6.04 112.38-4.54Q113.24-3.04 114.74-2.16Q116.24-1.28 118.08-1.28L118.08-1.28Q120.32-1.28 122.20-2.68L122.20-2.68L123.24-1.52Z M130.96-7.92Q130.96-10.16 132.06-12.06Q133.16-13.96 135.08-15.06Q137.00-16.16 139.32-16.16L139.32-16.16Q141.64-16.16 143.56-15.06Q145.48-13.96 146.56-12.06Q147.64-10.16 147.64-7.92L147.64-7.92Q147.64-5.64 146.54-3.76Q145.44-1.88 143.54-0.78Q141.64 0.32 139.28 0.32L139.28 0.32Q136.92 0.32 135.02-0.74Q133.12-1.80 132.04-3.68Q130.96-5.56 130.96-7.92L130.96-7.92ZM132.84-7.88Q132.84-6.08 133.70-4.56Q134.56-3.04 136.04-2.16Q137.52-1.28 139.28-1.28L139.28-1.28Q141.04-1.28 142.52-2.16Q144.00-3.04 144.86-4.56Q145.72-6.08 145.72-7.88L145.72-7.88Q145.72-9.68 144.86-11.22Q144.00-12.76 142.52-13.64Q141.04-14.52 139.28-14.52L139.28-14.52Q137.48-14.52 136.00-13.58Q134.52-12.64 133.68-11.12Q132.84-9.60 132.84-7.88L132.84-7.88Z M170.72-30.40L172.60-30.40L172.60 0L170.68 0L170.68-3.24Q169.60-1.64 167.72-0.66Q165.84 0.32 163.64 0.32L163.64 0.32Q161.44 0.32 159.62-0.74Q157.80-1.80 156.76-3.70Q155.72-5.60 155.72-7.92L155.72-7.92Q155.72-10.36 156.80-12.24Q157.88-14.12 159.72-15.12Q161.56-16.12 163.84-16.12L163.84-16.12Q165.88-16.12 167.78-15.12Q169.68-14.12 170.72-12.48L170.72-12.48L170.72-30.40ZM164.12-1.32Q166.80-1.32 168.64-3Q170.48-4.68 170.68-7.24L170.68-7.24L170.68-9.24Q170.24-11.52 168.38-13.04Q166.52-14.56 164.12-14.56L164.12-14.56Q162.32-14.56 160.84-13.72Q159.36-12.88 158.48-11.38Q157.60-9.88 157.60-7.96L157.60-7.96Q157.60-6.16 158.48-4.64Q159.36-3.12 160.86-2.22Q162.36-1.32 164.12-1.32L164.12-1.32Z M190.56-1.32Q193.08-1.32 195.12-3.04L195.12-3.04L196.08-1.68Q194.92-0.76 193.46-0.22Q192 0.32 190.52 0.32L190.52 0.32Q188.12 0.32 186.22-0.76Q184.32-1.84 183.26-3.70Q182.20-5.56 182.20-7.88L182.20-7.88Q182.20-10.12 183.32-12.02Q184.44-13.92 186.36-15.04Q188.28-16.16 190.56-16.16L190.56-16.16Q193.28-16.16 195.20-14.56Q197.12-12.96 198-10.24L198-10.24L184.64-5.08Q185.40-3.40 186.98-2.36Q188.56-1.32 190.56-1.32L190.56-1.32ZM190.44-14.56Q188.68-14.56 187.20-13.68Q185.72-12.80 184.88-11.30Q184.04-9.80 184.04-7.96L184.04-7.96Q184.04-7.12 184.20-6.48L184.20-6.48L195.72-11Q194.96-12.60 193.60-13.58Q192.24-14.56 190.44-14.56L190.44-14.56Z M235.56-1.52Q234.48-0.64 233.10-0.16Q231.72 0.32 230.28 0.32L230.28 0.32Q227.92 0.32 226.02-0.74Q224.12-1.80 223.04-3.66Q221.96-5.52 221.96-7.84L221.96-7.84Q221.96-10.16 223.06-12.02Q224.16-13.88 226.04-14.94Q227.92-16 230.12-16L230.12-16Q233.36-16 235.60-14.16L235.60-14.16L234.60-12.88Q232.60-14.44 230.24-14.44L230.24-14.44Q228.48-14.44 227.02-13.56Q225.56-12.68 224.70-11.16Q223.84-9.64 223.84-7.84L223.84-7.84Q223.84-6.04 224.70-4.54Q225.56-3.04 227.06-2.16Q228.56-1.28 230.40-1.28L230.40-1.28Q232.64-1.28 234.52-2.68L234.52-2.68L235.56-1.52Z M243.28-7.92Q243.28-10.16 244.38-12.06Q245.48-13.96 247.40-15.06Q249.32-16.16 251.64-16.16L251.64-16.16Q253.96-16.16 255.88-15.06Q257.80-13.96 258.88-12.06Q259.96-10.16 259.96-7.92L259.96-7.92Q259.96-5.64 258.86-3.76Q257.76-1.88 255.86-0.78Q253.96 0.32 251.60 0.32L251.60 0.32Q249.24 0.32 247.34-0.74Q245.44-1.80 244.36-3.68Q243.28-5.56 243.28-7.92L243.28-7.92ZM245.16-7.88Q245.16-6.08 246.02-4.56Q246.88-3.04 248.36-2.16Q249.84-1.28 251.60-1.28L251.60-1.28Q253.36-1.28 254.84-2.16Q256.32-3.04 257.18-4.56Q258.04-6.08 258.04-7.88L258.04-7.88Q258.04-9.68 257.18-11.22Q256.32-12.76 254.84-13.64Q253.36-14.52 251.60-14.52L251.60-14.52Q249.80-14.52 248.32-13.58Q246.84-12.64 246.00-11.12Q245.16-9.60 245.16-7.88L245.16-7.88Z M289-16.08Q291.20-16.08 292.52-14.80Q293.84-13.52 293.92-11.40L293.92-11.40L293.92 0L292.04 0L292.04-11Q291.96-12.44 291.10-13.40Q290.24-14.36 288.60-14.44L288.60-14.44Q287.04-14.44 285.72-13.64Q284.40-12.84 283.58-11.50Q282.76-10.16 282.68-8.56L282.68-8.56L282.68 0L280.80 0L280.80-11Q280.72-12.44 279.84-13.40Q278.96-14.36 277.32-14.44L277.32-14.44Q275.76-14.44 274.40-13.64Q273.04-12.84 272.24-11.44Q271.44-10.04 271.44-8.40L271.44-8.40L271.44 0L269.56 0L269.56-15.64L271.20-15.64L271.36-12.20Q272.24-14 274-15.04Q275.76-16.08 277.84-16.08L277.84-16.08Q279.72-16.08 281.08-15.06Q282.44-14.04 282.68-12.44L282.68-12.44Q283.60-14.16 285.30-15.12Q287-16.08 289-16.08L289-16.08Z M324.48-16.08Q326.68-16.08 328-14.80Q329.32-13.52 329.40-11.40L329.40-11.40L329.40 0L327.52 0L327.52-11Q327.44-12.44 326.58-13.40Q325.72-14.36 324.08-14.44L324.08-14.44Q322.52-14.44 321.20-13.64Q319.88-12.84 319.06-11.50Q318.24-10.16 318.16-8.56L318.16-8.56L318.16 0L316.28 0L316.28-11Q316.20-12.44 315.32-13.40Q314.44-14.36 312.80-14.44L312.80-14.44Q311.24-14.44 309.88-13.64Q308.52-12.84 307.72-11.44Q306.92-10.04 306.92-8.40L306.92-8.40L306.92 0L305.04 0L305.04-15.64L306.68-15.64L306.84-12.20Q307.72-14 309.48-15.04Q311.24-16.08 313.32-16.08L313.32-16.08Q315.20-16.08 316.56-15.06Q317.92-14.04 318.16-12.44L318.16-12.44Q319.08-14.16 320.78-15.12Q322.48-16.08 324.48-16.08L324.48-16.08Z M354.08-15.64L355.76-15.64L355.76 0L353.88 0L353.88-3.32Q352.96-1.80 351.08-0.74Q349.20 0.32 347.00 0.32L347.00 0.32Q344.76 0.32 342.94-0.70Q341.12-1.72 340.06-3.58Q339.00-5.44 339.00-7.84L339.00-7.84Q339.00-10.40 340.10-12.26Q341.20-14.12 343.14-15.12Q345.08-16.12 347.52-16.12L347.52-16.12Q349.44-16.12 351.20-15.04Q352.96-13.96 353.88-12.24L353.88-12.24L354.08-15.64ZM347.40-1.28Q350.04-1.28 351.88-2.92Q353.72-4.56 353.88-7.12L353.88-7.12L353.88-9.36Q353.40-11.56 351.56-13.04Q349.72-14.52 347.36-14.52L347.36-14.52Q345.56-14.52 344.08-13.70Q342.60-12.88 341.74-11.38Q340.88-9.88 340.88-7.92L340.88-7.92Q340.88-6.12 341.76-4.60Q342.64-3.08 344.14-2.18Q345.64-1.28 347.40-1.28L347.40-1.28Z M375.28-16.08Q377.44-16.08 378.80-14.78Q380.16-13.48 380.24-11.40L380.24-11.40L380.24 0L378.32 0L378.32-10.88Q378.24-12.44 377.32-13.42Q376.40-14.40 374.68-14.44L374.68-14.44Q373.08-14.44 371.74-13.68Q370.40-12.92 369.58-11.54Q368.76-10.16 368.76-8.40L368.76-8.40L368.76 0L366.88 0L366.88-15.64L368.52-15.64L368.68-12.16Q369.44-13.96 371.26-15.02Q373.08-16.08 375.28-16.08L375.28-16.08Z M404.84-30.40L406.72-30.40L406.72 0L404.80 0L404.80-3.24Q403.72-1.64 401.84-0.66Q399.96 0.32 397.76 0.32L397.76 0.32Q395.56 0.32 393.74-0.74Q391.92-1.80 390.88-3.70Q389.84-5.60 389.84-7.92L389.84-7.92Q389.84-10.36 390.92-12.24Q392.00-14.12 393.84-15.12Q395.68-16.12 397.96-16.12L397.96-16.12Q400.00-16.12 401.90-15.12Q403.80-14.12 404.84-12.48L404.84-12.48L404.84-30.40ZM398.24-1.32Q400.92-1.32 402.76-3Q404.60-4.68 404.80-7.24L404.80-7.24L404.80-9.24Q404.36-11.52 402.50-13.04Q400.64-14.56 398.24-14.56L398.24-14.56Q396.44-14.56 394.96-13.72Q393.48-12.88 392.60-11.38Q391.72-9.88 391.72-7.96L391.72-7.96Q391.72-6.16 392.60-4.64Q393.48-3.12 394.98-2.22Q396.48-1.32 398.24-1.32L398.24-1.32Z M424.68-1.32Q427.20-1.32 429.24-3.04L429.24-3.04L430.20-1.68Q429.04-0.76 427.58-0.22Q426.12 0.32 424.64 0.32L424.64 0.32Q422.24 0.32 420.34-0.76Q418.44-1.84 417.38-3.70Q416.32-5.56 416.32-7.88L416.32-7.88Q416.32-10.12 417.44-12.02Q418.56-13.92 420.48-15.04Q422.40-16.16 424.68-16.16L424.68-16.16Q427.40-16.16 429.32-14.56Q431.24-12.96 432.12-10.24L432.12-10.24L418.76-5.08Q419.52-3.40 421.10-2.36Q422.68-1.32 424.68-1.32L424.68-1.32ZM424.56-14.56Q422.80-14.56 421.32-13.68Q419.84-12.80 419.00-11.30Q418.16-9.80 418.16-7.96L418.16-7.96Q418.16-7.12 418.32-6.48L418.32-6.48L429.84-11Q429.08-12.60 427.72-13.58Q426.36-14.56 424.56-14.56L424.56-14.56Z M443.12-11.92Q443.96-13.80 445.88-14.92Q447.80-16.04 449.72-16.08L449.72-16.08L449.64-14.24Q447.88-14.24 446.40-13.46Q444.92-12.68 444.06-11.30Q443.20-9.92 443.20-8.28L443.20-8.28L443.20 0L441.32 0L441.32-15.64L442.96-15.64L443.12-11.92Z"/></g>
</svg>
</g><g opacity="1" transform="rotate(0 204.109 799.2972)">
<svg width="310.4872" height="120" x="204.109" y="799.2972" version="1.1" preserveAspectRatio="none" viewBox="2.2 -29.44 77 29.76">
  <g transform="matrix(1 0 0 1 0 0)" class="companyName"><path id="id-D6z1nYkh3" d="M27.16-2.68Q25.96-1.56 22.98-0.62Q20 0.32 17.52 0.32L17.52 0.32Q12.92 0.32 9.44-1.52Q5.96-3.36 4.08-6.58Q2.20-9.80 2.20-13.88L2.20-13.88Q2.20-18.80 4.22-22.32Q6.24-25.84 9.66-27.64Q13.08-29.44 17.16-29.44L17.16-29.44Q19.68-29.44 21.94-28.86Q24.20-28.28 25.92-27.32L25.92-27.32L24.40-23Q23.20-23.72 21.22-24.24Q19.24-24.76 17.76-24.76L17.76-24.76Q12.76-24.76 9.88-22Q7-19.24 7-14.28L7-14.28Q7-11.32 8.34-9.06Q9.68-6.80 12.10-5.56Q14.52-4.32 17.64-4.32L17.64-4.32Q19.04-4.32 20.32-4.58Q21.60-4.84 22.48-5.32L22.48-5.32L22.48-10.16L17-10.16L17-14.64L27.16-14.64L27.16-2.68Z M55.84-2.28Q54.56-1.36 52.30-0.52Q50.04 0.32 47.36 0.32L47.36 0.32Q42.84 0.32 39.46-1.66Q36.08-3.64 34.26-6.98Q32.44-10.32 32.44-14.32L32.44-14.32Q32.44-18.68 34.26-22.12Q36.08-25.56 39.34-27.50Q42.60-29.44 46.76-29.44L46.76-29.44Q49.32-29.44 51.50-28.76Q53.68-28.08 55.36-27.04L55.36-27.04L53.52-22.68Q50.28-24.96 46.92-24.96L46.92-24.96Q44.36-24.96 42.14-23.58Q39.92-22.20 38.60-19.82Q37.28-17.44 37.28-14.60L37.28-14.60Q37.28-11.60 38.50-9.22Q39.72-6.84 41.98-5.50Q44.24-4.16 47.20-4.16L47.20-4.16Q49.32-4.16 51.02-4.80Q52.72-5.44 53.88-6.44L53.88-6.44L55.84-2.28Z M77.32-23.20Q73.56-25.16 70.64-25.16L70.64-25.16Q68.48-25.16 67.22-24.20Q65.96-23.24 65.96-21.56L65.96-21.56Q65.96-19.92 67.54-18.82Q69.12-17.72 71.96-16.64L71.96-16.64Q74.12-15.88 75.66-14.90Q77.20-13.92 78.20-12.24Q79.20-10.56 79.20-8L79.20-8Q79.20-5.68 78.04-3.80Q76.88-1.92 74.68-0.80Q72.48 0.32 69.48 0.32L69.48 0.32Q66.84 0.32 64.28-0.50Q61.72-1.32 59.72-2.76L59.72-2.76L61.80-6.40Q63.28-5.28 65.30-4.54Q67.32-3.80 69.04-3.80L69.04-3.80Q71.16-3.80 72.76-4.82Q74.36-5.84 74.36-7.96L74.36-7.96Q74.36-9.64 73.02-10.76Q71.68-11.88 69.28-12.80L69.28-12.80Q66.80-13.72 65.16-14.62Q63.52-15.52 62.34-17.14Q61.16-18.76 61.16-21.20L61.16-21.20Q61.16-24.76 63.58-26.94Q66-29.12 69.96-29.28L69.96-29.28Q72.84-29.28 75.02-28.62Q77.20-27.96 79.08-26.76L79.08-26.76L77.32-23.20Z"/></g>
</svg>
</g><g opacity="1" transform="rotate(0 281.7308 608.3566)">
<svg width="155.2436" height="160.9406" x="281.7308" y="608.3566" version="1.1" preserveAspectRatio="none" viewBox="2.700000047683716 0.4749997854232788 122.625 127.12500762939453">
  <g transform="matrix(1 0 0 1 0 0)" class="icon1"><g><path d="M123.8,81.3c0.4,0,0.8-0.3,0.8-0.8V69.1c0-0.4-0.3-0.8-0.8-0.8c-0.4,0-0.8,0.3-0.8,0.8v11.5C123,81,123.4,81.3,123.8,81.3z   "></path><path d="M123.8,88.9c0.4,0,0.8-0.3,0.8-0.8v-3.7c0-0.4-0.3-0.8-0.8-0.8c-0.4,0-0.8,0.3-0.8,0.8v3.7C123,88.5,123.4,88.9,123.8,88.9   z"></path><path d="M7,51.2c-0.3-0.3-0.8-0.3-1.1,0c-0.3,0.3-0.3,0.8,0,1.1l1.6,1.6C7.7,54,7.9,54.1,8,54.1c0.2,0,0.4-0.1,0.5-0.2   c0.3-0.3,0.3-0.8,0-1.1L7,51.2z"></path><path d="M12.1,56.4c-0.3-0.3-0.8-0.3-1.1,0c-0.3,0.3-0.3,0.8,0,1.1l1.6,1.6c0.1,0.1,0.3,0.2,0.5,0.2c0.2,0,0.4-0.1,0.5-0.2   c0.3-0.3,0.3-0.8,0-1.1L12.1,56.4z"></path><path d="M7.5,56.4l-1.6,1.6c-0.3,0.3-0.3,0.8,0,1.1c0.1,0.1,0.3,0.2,0.5,0.2c0.2,0,0.4-0.1,0.5-0.2l1.6-1.6c0.3-0.3,0.3-0.8,0-1.1   C8.3,56.1,7.8,56.1,7.5,56.4z"></path><path d="M13.7,51.2c-0.3-0.3-0.8-0.3-1.1,0l-1.6,1.6c-0.3,0.3-0.3,0.8,0,1.1c0.1,0.1,0.3,0.2,0.5,0.2c0.2,0,0.4-0.1,0.5-0.2   l1.6-1.6C14,52,14,51.5,13.7,51.2z"></path><path d="M105.9,3.4c0.1,0.1,0.3,0.2,0.5,0.2c0.2,0,0.4-0.1,0.5-0.2c0.3-0.3,0.3-0.8,0-1.1l-1.6-1.6c-0.3-0.3-0.8-0.3-1.1,0   c-0.3,0.3-0.3,0.8,0,1.1L105.9,3.4z"></path><path d="M111,8.5c0.1,0.1,0.3,0.2,0.5,0.2c0.2,0,0.4-0.1,0.5-0.2c0.3-0.3,0.3-0.8,0-1.1l-1.6-1.6c-0.3-0.3-0.8-0.3-1.1,0   c-0.3,0.3-0.3,0.8,0,1.1L111,8.5z"></path><path d="M104.8,8.7c0.2,0,0.4-0.1,0.5-0.2l1.6-1.6c0.3-0.3,0.3-0.8,0-1.1c-0.3-0.3-0.8-0.3-1.1,0l-1.6,1.6c-0.3,0.3-0.3,0.8,0,1.1   C104.4,8.6,104.6,8.7,104.8,8.7z"></path><path d="M109.9,3.6c0.2,0,0.4-0.1,0.5-0.2l1.6-1.6c0.3-0.3,0.3-0.8,0-1.1c-0.3-0.3-0.8-0.3-1.1,0l-1.6,1.6c-0.3,0.3-0.3,0.8,0,1.1   C109.6,3.5,109.7,3.6,109.9,3.6z"></path><path d="M118.4,108.5c-0.3-0.3-0.8-0.3-1.1,0c-0.3,0.3-0.3,0.8,0,1.1l1.6,1.6c0.1,0.1,0.3,0.2,0.5,0.2c0.2,0,0.4-0.1,0.5-0.2   c0.3-0.3,0.3-0.8,0-1.1L118.4,108.5z"></path><path d="M123.5,113.6c-0.3-0.3-0.8-0.3-1.1,0c-0.3,0.3-0.3,0.8,0,1.1l1.6,1.6c0.1,0.1,0.3,0.2,0.5,0.2c0.2,0,0.4-0.1,0.5-0.2   c0.3-0.3,0.3-0.8,0-1.1L123.5,113.6z"></path><path d="M118.9,113.6l-1.6,1.6c-0.3,0.3-0.3,0.8,0,1.1c0.1,0.1,0.3,0.2,0.5,0.2c0.2,0,0.4-0.1,0.5-0.2l1.6-1.6   c0.3-0.3,0.3-0.8,0-1.1C119.7,113.3,119.2,113.3,118.9,113.6z"></path><path d="M123,111.4c0.2,0,0.4-0.1,0.5-0.2l1.6-1.6c0.3-0.3,0.3-0.8,0-1.1c-0.3-0.3-0.8-0.3-1.1,0l-1.6,1.6c-0.3,0.3-0.3,0.8,0,1.1   C122.6,111.3,122.8,111.4,123,111.4z"></path><path d="M117.9,25.1c1.9,0,3.4-1.5,3.4-3.4c0-1.9-1.5-3.4-3.4-3.4c-1.9,0-3.4,1.5-3.4,3.4C114.4,23.5,116,25.1,117.9,25.1z    M117.9,19.7c1.1,0,1.9,0.9,1.9,1.9c0,1.1-0.9,1.9-1.9,1.9c-1.1,0-1.9-0.9-1.9-1.9C115.9,20.5,116.8,19.7,117.9,19.7z"></path><path d="M12.3,108.2c-1.9,0-3.4,1.5-3.4,3.4c0,1.9,1.5,3.4,3.4,3.4s3.4-1.5,3.4-3.4C15.8,109.7,14.2,108.2,12.3,108.2z M12.3,113.5   c-1.1,0-1.9-0.9-1.9-1.9c0-1.1,0.9-1.9,1.9-1.9c1.1,0,1.9,0.9,1.9,1.9C14.3,112.7,13.4,113.5,12.3,113.5z"></path><path d="M16.7,7.1c0-0.4-0.3-0.8-0.8-0.8H3.4C3,6.3,2.7,6.7,2.7,7.1c0,0.4,0.3,0.8,0.8,0.8h12.5C16.3,7.8,16.7,7.5,16.7,7.1z"></path><path d="M20,7.8h4c0.4,0,0.8-0.3,0.8-0.8c0-0.4-0.3-0.8-0.8-0.8h-4c-0.4,0-0.8,0.3-0.8,0.8C19.3,7.5,19.6,7.8,20,7.8z"></path><path d="M24.1,12.1c0.4,0,0.8-0.3,0.8-0.8c0-0.4-0.3-0.8-0.8-0.8h-8.7c-0.4,0-0.8,0.3-0.8,0.8c0,0.4,0.3,0.8,0.8,0.8H24.1z"></path><path d="M12.4,11.4c0-0.4-0.3-0.8-0.8-0.8H8.8C8.4,10.6,8,11,8,11.4c0,0.4,0.3,0.8,0.8,0.8h2.8C12,12.1,12.4,11.8,12.4,11.4z"></path><path d="M101.9,121.8c0-0.4-0.3-0.8-0.8-0.8H88.6c-0.4,0-0.8,0.3-0.8,0.8c0,0.4,0.3,0.8,0.8,0.8h12.5   C101.5,122.5,101.9,122.2,101.9,121.8z"></path><path d="M109.3,122.5c0.4,0,0.8-0.3,0.8-0.8c0-0.4-0.3-0.8-0.8-0.8h-4c-0.4,0-0.8,0.3-0.8,0.8c0,0.4,0.3,0.8,0.8,0.8H109.3z"></path><path d="M109.3,125.3h-8.7c-0.4,0-0.8,0.3-0.8,0.8c0,0.4,0.3,0.8,0.8,0.8h8.7c0.4,0,0.8-0.3,0.8-0.8   C110,125.7,109.7,125.3,109.3,125.3z"></path><path d="M96.8,125.3H94c-0.4,0-0.8,0.3-0.8,0.8c0,0.4,0.3,0.8,0.8,0.8h2.8c0.4,0,0.8-0.3,0.8-0.8C97.6,125.7,97.2,125.3,96.8,125.3   z"></path><path d="M42,120.9H29.5c-0.4,0-0.8,0.3-0.8,0.8c0,0.4,0.3,0.8,0.8,0.8H42c0.4,0,0.8-0.3,0.8-0.8C42.8,121.3,42.4,120.9,42,120.9z"></path><path d="M25.4,120.9h-4c-0.4,0-0.8,0.3-0.8,0.8c0,0.4,0.3,0.8,0.8,0.8h4c0.4,0,0.8-0.3,0.8-0.8C26.2,121.3,25.8,120.9,25.4,120.9z"></path><path d="M21.4,116.6c-0.4,0-0.8,0.3-0.8,0.8c0,0.4,0.3,0.8,0.8,0.8h8.7c0.4,0,0.8-0.3,0.8-0.8c0-0.4-0.3-0.8-0.8-0.8H21.4z"></path><path d="M33.8,116.6c-0.4,0-0.8,0.3-0.8,0.8c0,0.4,0.3,0.8,0.8,0.8h2.8c0.4,0,0.8-0.3,0.8-0.8c0-0.4-0.3-0.8-0.8-0.8H33.8z"></path><path d="M101.9,80.8c-0.1,0.4,0.2,0.8,0.6,0.9l11.1,2.3c0.1,0,0.1,0,0.2,0c0.3,0,0.7-0.2,0.7-0.6c0.1-0.4-0.2-0.8-0.6-0.9   l-11.1-2.3C102.4,80.2,102,80.4,101.9,80.8z"></path><path d="M65.5,24.2c0.4,0,0.8-0.3,0.8-0.8V4.6c0-0.4-0.3-0.8-0.8-0.8c-0.4,0-0.8,0.3-0.8,0.8v18.8C64.7,23.8,65.1,24.2,65.5,24.2z"></path><path d="M41.9,30.1c0.1,0.2,0.4,0.4,0.6,0.4c0.1,0,0.3,0,0.4-0.1c0.4-0.2,0.5-0.7,0.3-1l-9.6-16.2c-0.2-0.4-0.7-0.5-1-0.3   c-0.4,0.2-0.5,0.7-0.3,1L41.9,30.1z"></path><path d="M26.2,47.1c0.3,0,0.5-0.1,0.7-0.4c0.2-0.4,0.1-0.8-0.3-1l-16.4-9.3c-0.4-0.2-0.8-0.1-1,0.3c-0.2,0.4-0.1,0.8,0.3,1L25.8,47   C25.9,47,26.1,47.1,26.2,47.1z"></path><path d="M33.6,90.9c-0.2-0.4-0.7-0.5-1-0.3l-16.3,9.5c-0.4,0.2-0.5,0.7-0.3,1c0.1,0.2,0.4,0.4,0.7,0.4c0.1,0,0.3,0,0.4-0.1L33.3,92   C33.7,91.8,33.8,91.3,33.6,90.9z"></path><path d="M114.6,100.2l-16.2-9.5c-0.4-0.2-0.8-0.1-1,0.3c-0.2,0.4-0.1,0.8,0.3,1l16.2,9.5c0.1,0.1,0.3,0.1,0.4,0.1   c0.3,0,0.5-0.1,0.7-0.4C115.1,100.9,115,100.4,114.6,100.2z"></path><path d="M120.8,36.5l-16.4,9.2c-0.4,0.2-0.5,0.7-0.3,1c0.1,0.2,0.4,0.4,0.7,0.4c0.1,0,0.3,0,0.4-0.1l16.4-9.2   c0.4-0.2,0.5-0.7,0.3-1C121.7,36.4,121.2,36.3,120.8,36.5z"></path><path d="M88.2,30.4c0.1,0.1,0.3,0.1,0.4,0.1c0.3,0,0.5-0.1,0.6-0.4l9.6-16.2c0.2-0.4,0.1-0.8-0.3-1c-0.4-0.2-0.8-0.1-1,0.3   l-9.6,16.2C87.7,29.7,87.8,30.2,88.2,30.4z"></path><path d="M54.1,24.7c0.1,0.3,0.4,0.5,0.7,0.5c0.1,0,0.2,0,0.2,0c0.4-0.1,0.6-0.5,0.5-0.9l-3.4-10.8c-0.1-0.4-0.5-0.6-0.9-0.5   c-0.4,0.1-0.6,0.5-0.5,0.9L54.1,24.7z"></path><path d="M33.6,36.3c0.1,0.1,0.3,0.2,0.5,0.2c0.2,0,0.4-0.1,0.6-0.2c0.3-0.3,0.3-0.8,0-1.1l-8.3-7.6c-0.3-0.3-0.8-0.3-1.1,0   c-0.3,0.3-0.3,0.8,0,1.1L33.6,36.3z"></path><path d="M16.4,83.1c0.1,0.3,0.4,0.5,0.7,0.5c0.1,0,0.2,0,0.2,0l10.8-3.4c0.4-0.1,0.6-0.5,0.5-0.9c-0.1-0.4-0.6-0.6-0.9-0.5   l-10.8,3.4C16.5,82.3,16.3,82.7,16.4,83.1z"></path><path d="M39.8,99.5c-0.3-0.3-0.8-0.3-1.1,0.1l-7.6,8.4c-0.3,0.3-0.3,0.8,0.1,1.1c0.1,0.1,0.3,0.2,0.5,0.2c0.2,0,0.4-0.1,0.6-0.2   l7.6-8.4C40.1,100.3,40.1,99.8,39.8,99.5z"></path><path d="M90,100.7c-0.3,0.3-0.3,0.8,0.1,1.1l8.4,7.6c0.1,0.1,0.3,0.2,0.5,0.2c0.2,0,0.4-0.1,0.6-0.2c0.3-0.3,0.3-0.8-0.1-1.1   l-8.4-7.6C90.8,100.4,90.3,100.4,90,100.7z"></path><path d="M105,28l-7.5,8.4c-0.3,0.3-0.3,0.8,0.1,1.1c0.1,0.1,0.3,0.2,0.5,0.2c0.2,0,0.4-0.1,0.6-0.3l7.5-8.4   c0.3-0.3,0.3-0.8-0.1-1.1C105.7,27.6,105.2,27.7,105,28z"></path><path d="M77.6,25.6c0.1,0,0.1,0,0.2,0c0.3,0,0.7-0.2,0.7-0.6L80.8,14c0.1-0.4-0.2-0.8-0.6-0.9c-0.4-0.1-0.8,0.2-0.9,0.6L77,24.7   C76.9,25.1,77.2,25.5,77.6,25.6z"></path><path d="M96.7,67.8c0.1,0,0.1,0,0.2,0c0.1,0,0.1,0,0.2,0c0.1,0,0.2,0,0.3-0.1l12.8-5.7c0.3-0.1,0.4-0.4,0.4-0.7   c0-0.3-0.2-0.6-0.4-0.7l-12.8-5.7c-0.2-0.1-0.3-0.1-0.5,0c-0.1,0-0.1,0-0.2,0H82.5V54v-0.3c0-2.3-1.8-4.1-4.1-4.1h-0.6   c-1,0-2,0.4-2.7,1c-0.3-1.9-1.9-3.3-3.9-3.3h-0.9c-1.2,0-2.2,0.5-3,1.4c-0.7-1.3-2.1-2.2-3.7-2.2h-0.4c-1.3,0-2.5,0.6-3.3,1.6   c-0.7-1.3-2.1-2.1-3.6-2.1h-0.4c-2.3,0-4.2,1.9-4.2,4.2v1.5c-0.3,0-0.5,0.1-0.8,0.2c-0.1,0-0.2,0.1-0.3,0.1   c-0.5,0.2-0.9,0.5-1.3,0.8c-0.1,0.1-0.2,0.2-0.2,0.3c-0.4,0.5-0.7,1.2-0.8,1.8H29.4c-3.6,0-6.5,2.9-6.5,6.5c0,3.6,2.9,6.5,6.5,6.5   h6.5c0,0,0,0,0,0c0,0,0,0,0,0h12.6v7.3c0,4.4,2.5,8.5,6.4,10.5c1.1,13.6,1.1,27.5,0,41.1l-0.1,0.8H77l-0.1-0.8   c-1.1-13.6-1.1-27.4,0-41.1c3.4-2.1,5.6-5.9,5.6-9.7v-8.1H96.7z M97.5,66.1v-9.5l10.6,4.7L97.5,66.1z M96,56.4v9.9H82.5v-6.6v-3.3   H96z M77.9,51.1h0.6c1.4,0,2.6,1.2,2.6,2.6V54v5.6c0,1.4-1.2,2.6-2.6,2.6h-0.6c-1.4,0-2.6-1.2-2.6-2.6v-5.9   C75.3,52.3,76.4,51.1,77.9,51.1z M68,51.2c0-1.3,1.1-2.4,2.4-2.4h0.9c1.3,0,2.4,1.1,2.4,2.4v2.5v5.9v0c0,1.4-1.2,2.6-2.6,2.6h-0.6   c-1.4,0-2.6-1.2-2.6-2.6V51.2z M63.4,47.9h0.4c1.5,0,2.7,1.2,2.7,2.7v8.8c0,1.6-1.3,2.9-2.9,2.9c-1.2,0-2.3-0.8-2.7-1.9h0.5   c2.3,0,4.2-1.9,4.2-4.2v-0.4c0-2.3-1.9-4.2-4.2-4.2h-0.7v-0.9C60.7,49.2,61.9,47.9,63.4,47.9z M57.3,60.4H59   c-0.3,0.8-0.9,1.4-1.7,1.7V60.4z M53.4,50.2c0-1.5,1.2-2.7,2.7-2.7h0.4c1.5,0,2.7,1.2,2.7,2.7v0.5v0.9h-5.8V50.2z M24.4,61.3   c0-2.7,2.2-5,5-5h5.7v9.9h-5.7C26.6,66.3,24.4,64.1,24.4,61.3z M36.6,66.3v-9.9h11.8v1v9H36.6z M75.8,84.5   c-0.2,0.1-0.3,0.4-0.4,0.6l0,0c-1.1,13.6-1.1,27.3-0.1,40.9h-19c1-13.5,1-27.2-0.1-40.8c0.1-0.3-0.1-0.7-0.4-0.8   c-3.6-1.7-5.9-5.4-5.9-9.4V57.3v-1.9c0-0.5,0.2-1,0.5-1.4c0-0.1,0.1-0.1,0.2-0.2c0.2-0.2,0.5-0.4,0.8-0.5c0,0,0.1,0,0.2-0.1   c0.3-0.1,0.6-0.1,0.9-0.1h6.7h1.5h0.7c1.5,0,2.7,1.2,2.7,2.7v0.4c0,1.5-1.2,2.7-2.7,2.7h-2.3h-2.6c-0.4,0-0.8,0.3-0.8,0.8   c0,0,0,0.1,0,0.1c0,0.1,0,0.1,0,0.2v8.9c0,0.2,0.1,0.5,0.3,0.6c0.2,0.1,0.5,0.2,0.7,0.1c0.1-0.1,3.7-1.3,6.1,3.4   c2.9,5.6,4.2,7.4,6.1,8.5c0.1,0.1,0.2,0.1,0.4,0.1c0.3,0,0.5-0.1,0.7-0.4c0.2-0.4,0.1-0.8-0.3-1c-1.5-0.9-2.8-2.7-5.5-7.8   c-2.2-4.2-5.4-4.5-7-4.4v-4.2c1.1-0.3,2-0.9,2.6-1.8c0.8,1.2,2.1,2,3.6,2c1.5,0,2.8-0.7,3.6-1.9c0.7,1.1,2,1.8,3.4,1.8h0.6   c1.4,0,2.6-0.7,3.4-1.8c0.7,1.1,2,1.8,3.4,1.8h0.6c1,0,1.9-0.4,2.6-1v13.1C81,79.3,78.9,82.8,75.8,84.5z"></path></g></g>
</svg>
</g></svg></svg>