<svg version="1.1" preserveAspectRatio="none" xmlns="http://www.w3.org/2000/svg" width="500" height="500" viewBox="0 0 500 500"><rect width="100%" height="100%" fill="#1A1A1A" fill-opacity="1"/><svg viewBox="445.7834 453.8357 392.7318 305.1793" width="333" height="258.76363182202203" x="83.5px" y="120.6182px" xmlns="http://www.w3.org/2000/svg" xmlns:xlink="http://www.w3.org/1999/xlink" preserveAspectRatio="none"><defs></defs><style>.companyName {fill:#EBE7D9;fill-opacity:1;}.icon2 {fill:#BA3521;fill-opacity:1;}.icon3 {fill:#F55139;fill-opacity:1;}.icon3-str {stroke:#F55139;stroke-opacity:1;}.shape {fill:#35247B;fill-opacity:1;}.text {fill:#BCBBB5;fill-opacity:1;}</style><g opacity="1" transform="rotate(0 485.0566 453.8357)">
<svg width="314.1855" height="305.1793" x="485.0566" y="453.8357" version="1.1" preserveAspectRatio="none" viewBox="7.699998378753662 9.399999618530272 84.60001373291016 82.17499542236328">
  <g transform="matrix(1 0 0 1 0 0)" class="shape"><path d="M7.8,54.6c0.7,0,1.5,0,2.2,0c1.3,0,2.6,0,4,0c1.9,0,3.9-0.1,5.8-0.1c1.6,0,3.2-0.1,4.8-0.1c1.7,0,3.5-0.1,5.2-0.1  c1.7,0,3.4-0.1,5.1-0.1c1.9,0,3.9-0.1,5.8-0.1c2,0,4.1-0.1,6.1-0.1c0.5,0,0.9,0,1.4,0c-0.9,0-1.9,0-2.8,0c-2.6,0-5.2-0.1-7.7-0.1  c-1.8,0-3.6-0.1-5.3-0.1c-1.8,0-3.5-0.1-5.3-0.1c-1.5,0-2.9-0.1-4.4-0.1c-1.7,0-3.3-0.1-5-0.1c-2.1,0-4.3-0.1-6.4-0.1  c-1.2,0-2.4-0.1-3.6-0.1c1.3,0,2.7,0,4,0c1.8,0,3.6-0.1,5.4-0.1c0.7,0,1.5,0,2.2,0c2,0,3.9-0.1,5.9-0.1c0.7,0,1.5,0,2.2,0  c1.6,0,3.2-0.1,4.8-0.1c2.1,0,4.3-0.1,6.4-0.1c1.9,0,3.7-0.1,5.6-0.1c0.8,0,1.5,0,2.3-0.1c-0.1,0-0.3,0-0.4,0c-0.9,0-1.7,0-2.6,0  c-1.8,0-3.7-0.1-5.5-0.1c-1.6,0-3.3,0-4.9-0.1c-1.9,0-3.8-0.1-5.7-0.1c-1.7,0-3.4-0.1-5.1-0.1c-1.6,0-3.2-0.1-4.7-0.1  c-1.6,0-3.2,0-4.8-0.1c-1.7,0-3.4-0.1-5.1-0.1c0.7,0,1.4,0,2.1,0c1.4,0,2.7,0,4.1,0c1.9,0,3.8-0.1,5.7-0.1c1.6,0,3.2-0.1,4.8-0.1  c1.7,0,3.4-0.1,5.1-0.1c1.7,0,3.3-0.1,5-0.1c2,0,4.1-0.1,6.1-0.1c1.6,0,3.3,0,4.9-0.1c0.3,0,0.6,0,1,0c-0.7,0-1.3,0-2-0.1  c-1.8,0-3.7-0.1-5.5-0.1c-1.2,0-2.4,0-3.6-0.1c-1.1,0-2.2,0-3.4,0c-1.5,0-3-0.1-4.5-0.1c-1.5,0-3,0-4.5-0.1c-2.1,0-4.1-0.1-6.2-0.1  c-2,0-4-0.1-6-0.1c-1,0-2-0.1-3-0.1c0.6,0,1.1,0,1.7,0c1.5,0,3,0,4.6,0c1.7,0,3.3-0.1,5-0.1c1.6,0,3.2-0.1,4.8-0.1  c1.8,0,3.6-0.1,5.5-0.1c1.5,0,2.9-0.1,4.4-0.1c1.6,0,3.3-0.1,4.9-0.1c2.5,0,5.1-0.1,7.6-0.1c0.1,0,0.1,0,0.2,0c-0.6,0-1.2,0-1.8,0  c-1.9,0-3.7-0.1-5.6-0.1c-1.1,0-2.2,0-3.4-0.1c-1.1,0-2.3,0-3.4,0c-1.8,0-3.7-0.1-5.5-0.1c-1.4,0-2.8,0-4.1-0.1  c-1.6,0-3.3-0.1-4.9-0.1c-1.5,0-2.9-0.1-4.4-0.1c-1.8,0-3.6-0.1-5.4-0.1c0.6,0,1.2,0,1.8,0c1.4,0,2.8,0,4.2,0c1.6,0,3.2-0.1,4.8-0.1  c1.5,0,3.1,0,4.6-0.1c1.4,0,2.7-0.1,4.1-0.1c2.5,0,4.9-0.1,7.4-0.1c1.8,0,3.6-0.1,5.5-0.1c2.2,0,4.5-0.1,6.7-0.1c0.1,0,0.2,0,0.3,0  c-1,0-1.9,0-2.9-0.1c-1.5,0-2.9,0-4.4-0.1c-2.2,0-4.4-0.1-6.6-0.1c-2,0-4-0.1-6-0.1c-1.1,0-2.2,0-3.4-0.1c-1.6,0-3.1-0.1-4.7-0.1  c-0.7,0-1.5,0-2.2,0c-1.7,0-3.5,0-5.2-0.1c-1.4,0-2.7-0.1-4.1-0.1c0.6,0,1.2,0,1.8,0c1.5,0,3,0,4.5,0c1.6,0,3.2-0.1,4.7-0.1  c1.9,0,3.9-0.1,5.8-0.1c1.7,0,3.5-0.1,5.2-0.1c1.7,0,3.3-0.1,5-0.1c2,0,4-0.1,6-0.1c2.2,0,4.4-0.1,6.6-0.1c2.4,0,4.9,0,7.3,0  c2.8,0,5.6,0.1,8.3,0.1c2.1,0,4.2,0.1,6.3,0.1c1.7,0,3.4,0.1,5.1,0.1c1.7,0,3.4,0.1,5.1,0.1c1.9,0,3.7,0.1,5.6,0.1  c2.3,0,4.5,0.1,6.8,0.1c0,0,0.1,0,0.2,0c-1.1,0-2,0.1-3,0.1c-1.7,0-3.5,0-5.2,0.1c-1.8,0-3.7,0.1-5.5,0.1c-1.5,0-3,0.1-4.6,0.1  c-1.4,0-2.9,0.1-4.3,0.1c-1.4,0-2.9,0.1-4.3,0.1c-1.2,0-2.4,0-3.6,0.1c-0.7,0-1.4,0-2.1,0c-2.3,0-4.5,0.1-6.8,0.1c1.5,0,2.9,0,4.4,0  c1.7,0,3.5,0.1,5.2,0.1c2.1,0,4.2,0.1,6.3,0.1c1.8,0,3.6,0.1,5.3,0.1c1.9,0,3.7,0.1,5.6,0.1c1.5,0,3.1,0.1,4.6,0.1  c2.2,0,4.3,0.1,6.5,0.1c0.5,0,1,0,1.5,0c-1,0-2,0.1-3,0.1c-1.7,0-3.4,0-5.2,0.1c-1.7,0-3.5,0.1-5.2,0.1c-1.8,0-3.6,0.1-5.4,0.1  c-1.5,0-3.1,0.1-4.6,0.1c-1.7,0-3.4,0.1-5.1,0.1c-2,0-4,0.1-6,0.1c-1.4,0-2.8,0.1-4.2,0.1c1.2,0,2.5,0,3.7,0c1.3,0,2.6,0,3.8,0.1  c1.2,0,2.3,0,3.5,0.1c1.5,0,3,0.1,4.6,0.1c1.9,0,3.7,0.1,5.6,0.1c1.8,0,3.6,0.1,5.3,0.1c1.7,0,3.5,0.1,5.2,0.1  c2.4,0,4.7,0.1,7.1,0.1c-0.2,0-0.5,0-0.7,0c-2,0-4,0.1-6,0.1c-1.5,0-3,0.1-4.6,0.1c-2,0-4,0.1-6.1,0.1c-1.8,0-3.6,0.1-5.4,0.1  c-1.9,0-3.8,0.1-5.7,0.1c-1.7,0-3.3,0.1-5,0.1c-1.5,0-3,0.1-4.5,0.1c-0.2,0-0.3,0-0.5,0c1,0,2.1,0,3.1,0c1.9,0,3.8,0.1,5.7,0.1  c0.5,0,1,0,1.5,0c1.5,0,3.1,0,4.6,0.1c1.7,0,3.5,0.1,5.2,0.1c1.8,0,3.7,0.1,5.5,0.1c1.5,0,3,0.1,4.6,0.1c2.2,0,4.5,0.1,6.7,0.1  c0.5,0,1,0,1.5,0c-0.7,0-1.4,0-2,0.1c-1.3,0-2.7,0-4,0.1c-1.2,0-2.3,0-3.5,0.1c-1.2,0-2.3,0-3.5,0.1c-1.6,0-3.2,0.1-4.7,0.1  c-1.4,0-2.9,0.1-4.3,0.1c-1.9,0-3.8,0.1-5.7,0.1c-1.7,0-3.4,0-5.1,0.1c-1.6,0-3.3,0.1-4.9,0.1c-0.4,0-0.9,0-1.3,0c1.2,0,2.4,0,3.6,0  c1.3,0,2.7,0,4,0.1c1.3,0,2.5,0,3.8,0.1c1.5,0,3.1,0.1,4.6,0.1c1.5,0,2.9,0.1,4.4,0.1c2.1,0,4.3,0.1,6.4,0.1c1.9,0,3.8,0.1,5.7,0.1  c1.7,0,3.4,0,5.1,0.1c0.5,0,1,0,1.5,0.1c-0.6,0-1.3,0-1.9,0.1c-2,0-4.1,0.1-6.1,0.1c-1.9,0-3.7,0.1-5.6,0.1c-1.7,0-3.3,0.1-5,0.1  c-1.8,0-3.6,0.1-5.5,0.1c-1,0-2,0-3.1,0c-1.3,0-2.5,0.1-3.8,0.1c-1,0-2,0-3.1,0c-2.1,0-4.3,0.1-6.4,0.1c-0.1,0-0.2,0-0.3,0  c1.5,0,3.1,0,4.6,0c1.5,0,3.1,0,4.6,0.1c1,0,2.1,0,3.1,0c1.7,0,3.4,0.1,5.2,0.1c1.8,0,3.7,0.1,5.5,0.1c1.7,0,3.4,0.1,5.2,0.1  c1.8,0,3.6,0.1,5.4,0.1c2.4,0,4.7,0.1,7.1,0.1c-1.6,0-3.2,0.1-4.8,0.1c-1.7,0-3.5,0.1-5.2,0.1c-1.1,0-2.2,0-3.3,0  c-1.5,0-3,0.1-4.5,0.1c-1.9,0-3.9,0.1-5.8,0.1c-1.6,0-3.2,0.1-4.8,0.1c-1.9,0-3.7,0.1-5.6,0.1c-2.3,0-4.6,0.1-6.8,0.1  c-2.1,0-4.3,0-6.4,0c-2,0-4.1-0.1-6.1-0.1c-1.8,0-3.6-0.1-5.3-0.1c-1.7,0-3.3-0.1-5-0.1c-1.9,0-3.8-0.1-5.7-0.1  c-1.8,0-3.7-0.1-5.5-0.1c-1.5,0-3,0-4.5-0.1C11,54.7,9.4,54.7,7.8,54.6C7.8,54.6,7.8,54.6,7.8,54.6z M48.7,54  C48.7,54,48.7,54,48.7,54c0.1,0,0.1,0,0.2,0c0,0,0,0,0,0C48.9,54,48.8,54,48.7,54z M50.4,54L50.4,54L50.4,54L50.4,54z M47.7,48.5  L47.7,48.5L47.7,48.5L47.7,48.5z"></path><path d="M8.1,46.4c0.7,0,1.4,0,2.1,0c2,0,4-0.1,6.1-0.1c1,0,2.1,0,3.1,0c1.6,0,3.1-0.1,4.7-0.1c1.9,0,3.7-0.1,5.6-0.1  c1.5,0,3-0.1,4.5-0.1c1.6,0,3.2-0.1,4.8-0.1c1.5,0,2.9,0,4.4-0.1c2.1,0,4.3,0,6.4,0c2.6,0,5.2,0,7.8,0c2.1,0,4.2,0.1,6.2,0.1  c1.8,0,3.6,0.1,5.3,0.1c1.7,0,3.4,0.1,5.1,0.1c1.7,0,3.3,0.1,5,0.1c1.9,0,3.8,0.1,5.6,0.1c2.3,0,4.6,0.1,6.8,0.1c0,0,0.1,0,0.1,0  c-1.6,0-3.2,0.1-4.8,0.1c-1.8,0-3.6,0.1-5.4,0.1c-1,0-2.1,0-3.1,0c-1.5,0-2.9,0.1-4.4,0.1c-1.9,0-3.8,0.1-5.7,0.1  c-1.6,0-3.2,0.1-4.7,0.1c-1.7,0-3.4,0.1-5.1,0.1c-1.8,0-3.7,0.1-5.5,0.1c-2.3,0-4.7,0-7,0c-2.3,0-4.6-0.1-7-0.1  c-2.2,0-4.4-0.1-6.6-0.1c-3-0.1-5.9-0.1-8.9-0.2c-2.1,0-4.3-0.1-6.4-0.1c-2.1,0-4.3-0.1-6.4-0.1C9.9,46.5,9,46.4,8.1,46.4  C8.1,46.4,8.1,46.4,8.1,46.4z"></path><path d="M8.2,56c1.9,0,3.7,0,5.6-0.1c1.8,0,3.6-0.1,5.3-0.1c1.9,0,3.8-0.1,5.7-0.1c1.8,0,3.5-0.1,5.3-0.1c1.6,0,3.2-0.1,4.8-0.1  c1.8,0,3.6-0.1,5.4-0.1c1.7,0,3.5-0.1,5.2-0.1c2.5,0,5,0,7.6,0c1.6,0,3.1,0,4.7,0c2,0,4,0.1,6.1,0.1c1.8,0,3.6,0.1,5.3,0.1  c1.7,0,3.3,0.1,5,0.1c1.7,0,3.5,0.1,5.2,0.1c1.8,0,3.6,0.1,5.4,0.1c2.4,0,4.7,0.1,7.1,0.1c0,0,0.1,0,0.2,0c-0.7,0-1.4,0-2,0.1  c-1.6,0-3.3,0.1-4.9,0.1c-1.7,0-3.4,0.1-5.1,0.1c-0.6,0-1.3,0-1.9,0c-1.4,0-2.9,0.1-4.3,0.1c-1.4,0-2.8,0.1-4.2,0.1  c-1.1,0-2.2,0-3.3,0.1c-0.9,0-1.9,0-2.8,0c-2.9,0-5.9,0.1-8.8,0.1c-2.4,0-4.9,0-7.3,0c-2.6,0-5.2-0.1-7.8-0.1c-1.7,0-3.5,0-5.2-0.1  c-1.4,0-2.8-0.1-4.2-0.1c-2,0-4.1-0.1-6.1-0.1c-2.3,0-4.6-0.1-6.9-0.1c-1.5,0-2.9,0-4.4-0.1C11.2,56.1,9.7,56,8.2,56  C8.2,56,8.2,56,8.2,56z"></path><path d="M8.4,45c1.2,0,2.5,0,3.7,0c1.9,0,3.7-0.1,5.6-0.1c2.5,0,5-0.1,7.4-0.1c1.8,0,3.5-0.1,5.3-0.1c1.7,0,3.5-0.1,5.2-0.1  c2.2,0,4.5,0,6.7-0.1c4.1-0.1,8.2-0.1,12.3,0c2.5,0,5,0.1,7.4,0.1c2.3,0,4.6,0.1,6.9,0.1c1.7,0,3.4,0.1,5.1,0.1  c1.7,0,3.5,0.1,5.2,0.1c1.9,0,3.7,0.1,5.6,0.1c2.3,0,4.6,0.1,7,0.1c-0.3,0-0.6,0-0.9,0c-2,0.1-3.9,0.1-5.9,0.1c-1,0-2.1,0-3.1,0.1  c-1.1,0-2.2,0-3.2,0.1c-1.6,0-3.2,0.1-4.8,0.1c-1.9,0-3.9,0.1-5.8,0.1c-1.9,0-3.7,0.1-5.6,0.1c-2.5,0-5,0.1-7.5,0.1  c-3,0.1-6,0-8.9,0c-2.5,0-5-0.1-7.6-0.1c-1.8,0-3.7-0.1-5.5-0.1c-1.9,0-3.8-0.1-5.7-0.1c-0.8,0-1.6,0-2.5,0c-1.7,0-3.3-0.1-5-0.1  c-2.3,0-4.6-0.1-7-0.1C11.3,45.1,9.8,45.1,8.4,45C8.4,45,8.4,45,8.4,45z"></path><path d="M91.7,57.3c-0.6,0-1.3,0-1.9,0.1c-2.2,0-4.3,0.1-6.5,0.1c-1.9,0-3.7,0.1-5.6,0.1c-1.9,0-3.7,0.1-5.6,0.1  c-1.6,0-3.2,0.1-4.8,0.1c-2,0-4,0.1-6,0.1c-2.5,0-5.1,0.1-7.6,0.1c-2.5,0-5,0-7.6,0c-2.3,0-4.6,0-6.8-0.1c-1.9,0-3.9-0.1-5.8-0.1  c-1.7,0-3.4-0.1-5.1-0.1c-1.8,0-3.6-0.1-5.3-0.1c-1.9,0-3.7-0.1-5.6-0.1c-2.1,0-4.2-0.1-6.2-0.1c-1,0-2-0.1-3-0.1c0.8,0,1.6,0,2.4,0  c1.4,0,2.7,0,4.1-0.1c1.1,0,2.2,0,3.3-0.1c1.2,0,2.4,0,3.6-0.1c1.1,0,2.3,0,3.4-0.1c1.4,0,2.8-0.1,4.2-0.1c1.6,0,3.2-0.1,4.8-0.1  c1.7,0,3.4-0.1,5.1-0.1c1,0,1.9,0,2.9,0c2.1,0,4.2-0.1,6.2-0.1c2.4,0,4.8,0,7.2,0c2.6,0,5.1,0.1,7.7,0.1c1.9,0,3.7,0.1,5.6,0.1  c1.6,0,3.3,0.1,4.9,0.1c1.7,0,3.5,0.1,5.2,0.1c1.9,0,3.8,0.1,5.7,0.1C87.1,57.3,89.4,57.3,91.7,57.3C91.7,57.3,91.7,57.3,91.7,57.3z  "></path><path d="M8.4,43.6c1.6,0,3.3,0,4.9,0c2.3,0,4.6-0.1,6.9-0.1c1.8,0,3.6-0.1,5.5-0.1c1.7,0,3.4-0.1,5.1-0.1c1.9,0,3.8-0.1,5.7-0.1  c1.7,0,3.5-0.1,5.2-0.1c2.2,0,4.3-0.1,6.5-0.1c2.2,0,4.5,0,6.7,0c2.6,0,5.2,0.1,7.8,0.1c1.9,0,3.8,0.1,5.7,0.1  c1.9,0,3.7,0.1,5.6,0.1c1.5,0,3.1,0.1,4.6,0.1c1.7,0,3.3,0.1,5,0.1c1.9,0,3.7,0.1,5.6,0.1c0.9,0,1.8,0,2.7,0c-0.7,0-1.4,0-2.1,0.1  c-1.3,0-2.6,0.1-4,0.1c-2.2,0-4.4,0.1-6.7,0.1c-2.3,0-4.6,0.1-6.8,0.1c-1.5,0-3,0-4.5,0.1c-1.7,0-3.3,0.1-5,0.1  c-2,0-4.1,0.1-6.1,0.1c-2.6,0-5.3,0.1-7.9,0.1c-2.8,0-5.6,0-8.3-0.1c-1.9,0-3.9-0.1-5.8-0.1c-1.9,0-3.9-0.1-5.8-0.1  c-1.9,0-3.7-0.1-5.6-0.1c-1.8,0-3.6-0.1-5.4-0.1c-2.1,0-4.1-0.1-6.2-0.1C10.4,43.7,9.4,43.7,8.4,43.6C8.4,43.7,8.4,43.7,8.4,43.6z"></path><path d="M8.5,58.7c1.4,0,2.7,0,4.1,0c1.3,0,2.6,0,4-0.1c1.1,0,2.2,0,3.3-0.1c1.7,0,3.4-0.1,5.1-0.1c1.9,0,3.8-0.1,5.7-0.1  c1.9,0,3.8-0.1,5.7-0.1c1.7,0,3.5-0.1,5.2-0.1c3.2,0,6.3-0.1,9.5-0.1c1.3,0,2.6,0,4,0c2.6,0,5.2,0.1,7.8,0.1c1.7,0,3.5,0.1,5.2,0.1  c2,0,4.1,0.1,6.1,0.1c1.4,0,2.7,0,4.1,0.1c1.7,0,3.5,0.1,5.2,0.1c1.8,0,3.5,0.1,5.3,0.1c0.8,0,1.7,0,2.5,0.1c-0.2,0-0.4,0-0.5,0  c-1.7,0.1-3.5,0.1-5.2,0.1c-2.3,0-4.6,0.1-6.9,0.1c-2.3,0-4.5,0.1-6.8,0.1c-1.8,0-3.7,0.1-5.5,0.1c-1.1,0-2.2,0-3.3,0.1  c-1.8,0-3.6,0.1-5.4,0.1c-2.6,0-5.2,0-7.8,0c-2.4,0-4.7,0-7.1,0c-1.5,0-3.1,0-4.6-0.1c-1.2,0-2.4,0-3.6,0c-1.9,0-3.8-0.1-5.7-0.1  c-1.7,0-3.3-0.1-5-0.1c-1.6,0-3.3-0.1-4.9-0.1c-1.7,0-3.3-0.1-5-0.1c-0.9,0-1.8,0-2.6,0C10.3,58.8,9.4,58.7,8.5,58.7  C8.5,58.7,8.5,58.7,8.5,58.7z"></path><path d="M91.3,42.3c-1.7,0-3.3,0.1-5,0.1c-1.8,0-3.6,0.1-5.4,0.1c-1.1,0-2.1,0-3.2,0c-1.6,0-3.2,0.1-4.8,0.1c-2,0-3.9,0.1-5.9,0.1  c-1.7,0-3.4,0.1-5.2,0.1c-2.1,0-4.1,0.1-6.2,0.1c-2.5,0-5,0-7.6,0c-2.7,0-5.4,0-8.1-0.1c-2,0-4.1-0.1-6.1-0.1  c-1.8,0-3.6-0.1-5.5-0.1c-1.6,0-3.3-0.1-4.9-0.1c-2,0-3.9-0.1-5.9-0.1c-1.8,0-3.5,0-5.3-0.1c-1.3,0-2.5-0.1-3.8-0.1  c0.6,0,1.2,0,1.8,0c1.5,0,3,0,4.5,0c1.7,0,3.4-0.1,5.1-0.1c2,0,4-0.1,6-0.1c1.9,0,3.7-0.1,5.6-0.1c1.9,0,3.9-0.1,5.8-0.1  c3.1,0,6.1-0.1,9.2-0.1c2,0,4,0,6,0c2.6,0,5.1,0,7.7,0.1c2.3,0,4.6,0.1,6.8,0.1c2,0,4,0.1,6.1,0.1c2,0,4.1,0.1,6.1,0.1  c0.9,0,1.8,0,2.7,0c1.5,0,2.9,0,4.4,0.1c1.6,0,3.2,0,4.8,0.1C91.1,42.3,91.2,42.3,91.3,42.3C91.3,42.3,91.3,42.3,91.3,42.3z"></path><path d="M91.1,60.1c-2.2,0-4.3,0.1-6.5,0.1c-1.4,0-2.8,0-4.1,0.1c-1,0-2.1,0-3.1,0c-1.5,0-3.1,0.1-4.6,0.1c-2.2,0-4.5,0.1-6.7,0.1  c-1.9,0-3.9,0.1-5.8,0.1c-2.2,0-4.3,0-6.5,0.1c-3.1,0-6.1,0-9.2,0c-2.3,0-4.5-0.1-6.8-0.1c-0.8,0-1.6,0-2.4,0  c-1.9,0-3.8-0.1-5.7-0.1c-1.2,0-2.4,0-3.6-0.1c-1.7,0-3.4-0.1-5.1-0.1c-0.8,0-1.6,0-2.4,0c-1.7,0-3.4,0-5.1-0.1  c-1.5,0-3.1-0.1-4.6-0.1c1.7,0,3.5,0,5.2-0.1c2.4,0,4.7-0.1,7.1-0.1c1.8,0,3.5-0.1,5.3-0.1c1.8,0,3.5-0.1,5.3-0.1  c1.9,0,3.8-0.1,5.7-0.1c2.9,0,5.9-0.1,8.8-0.1c2,0,4,0,6,0c2.7,0,5.5,0,8.2,0.1c2.4,0,4.8,0.1,7.2,0.1c1.8,0,3.6,0.1,5.4,0.1  c1.8,0,3.5,0.1,5.3,0.1c1.9,0,3.8,0.1,5.7,0.1C86.3,60,88.7,60,91.1,60.1C91.1,60.1,91.1,60.1,91.1,60.1z"></path><path d="M91,40.9c-0.4,0-0.8,0-1.2,0c-1.9,0-3.9,0.1-5.8,0.1c-1.5,0-3.1,0.1-4.6,0.1c-2.6,0-5.1,0.1-7.7,0.1c-1.6,0-3.2,0.1-4.7,0.1  c-1.9,0-3.9,0-5.8,0.1c-5,0.1-10.1,0.1-15.1,0.1c-1.6,0-3.2,0-4.8,0c-2.2,0-4.4-0.1-6.6-0.1c-1.5,0-2.9,0-4.4-0.1  c-2.2,0-4.3-0.1-6.5-0.1c-1.8,0-3.6-0.1-5.5-0.1c-2.1,0-4.3-0.1-6.4-0.1c-1,0-1.9-0.1-2.9-0.1c0.6,0,1.3,0,1.9,0c1.4,0,2.9,0,4.3,0  c1.7,0,3.4-0.1,5.1-0.1c2.1,0,4.1-0.1,6.2-0.1c0.6,0,1.2,0,1.9,0c1.2,0,2.4,0,3.6,0c1.2,0,2.4,0,3.6-0.1c2.8,0,5.7-0.1,8.5-0.1  c2.9,0,5.8,0,8.7,0c2.6,0,5.2,0,7.8,0c2.1,0,4.2,0.1,6.3,0.1c1.9,0,3.8,0.1,5.7,0.1c1.7,0,3.5,0.1,5.2,0.1c2.1,0,4.1,0.1,6.2,0.1  c1.4,0,2.9,0,4.3,0.1C89.2,40.9,90.1,40.9,91,40.9C91,40.9,91,40.9,91,40.9z"></path><path d="M90.6,61.5c-1.7,0-3.3,0.1-5,0.1c-1.8,0-3.6,0.1-5.3,0.1c-1.2,0-2.4,0-3.6,0.1c-1.7,0-3.4,0.1-5.1,0.1c-1.7,0-3.3,0.1-5,0.1  c-1.3,0-2.5,0-3.8,0.1c-1.9,0-3.8,0-5.7,0.1c-3.4,0-6.9,0-10.3,0c-3.1,0-6.2,0-9.3-0.1c-2.4,0-4.9-0.1-7.3-0.1c-1.8,0-3.7,0-5.5-0.1  c-2.1,0-4.1-0.1-6.2-0.1c-1.4,0-2.8,0-4.2-0.1c-1.6,0-3.3-0.1-4.9-0.1c0.6,0,1.1,0,1.7,0c1.5,0,2.9,0,4.4,0c1.7,0,3.4-0.1,5.1-0.1  c2,0,4-0.1,6.1-0.1c1.4,0,2.9,0,4.3-0.1c2.1,0,4.1-0.1,6.2-0.1c2.9,0,5.7-0.1,8.6-0.1c1.6,0,3.2,0,4.8,0c2.8,0,5.7,0,8.5,0  c2.4,0,4.8,0.1,7.2,0.1c2.1,0,4.1,0.1,6.2,0.1c1.9,0,3.7,0.1,5.6,0.1c1.8,0,3.6,0.1,5.5,0.1C85.8,61.4,88.2,61.4,90.6,61.5  C90.6,61.4,90.6,61.5,90.6,61.5z"></path><path d="M9.2,39.5c1.7,0,3.4,0,5.1-0.1c2.4,0,4.8-0.1,7.2-0.1c1.9,0,3.8-0.1,5.7-0.1c1.9,0,3.9-0.1,5.8-0.1c2.2,0,4.4-0.1,6.7-0.1  C44.3,39,49,39,53.6,39c1.8,0,3.6,0,5.4,0c2.4,0,4.8,0.1,7.2,0.1c1.9,0,3.7,0.1,5.6,0.1c2,0,4,0.1,6,0.1c1.9,0,3.7,0.1,5.6,0.1  c2.4,0,4.8,0.1,7.2,0.1c-1.6,0-3.2,0.1-4.8,0.1c-1.3,0-2.6,0-3.9,0c-1.9,0-3.7,0.1-5.6,0.1c-1.9,0-3.9,0.1-5.8,0.1  c-1.9,0-3.7,0.1-5.6,0.1c-1.7,0-3.4,0.1-5.1,0.1c-3.2,0-6.4,0.1-9.7,0.1c-2.5,0-5,0-7.6,0c-1.6,0-3.3,0-4.9-0.1c-1.3,0-2.7,0-4-0.1  c-1.3,0-2.5,0-3.8-0.1c-1.9,0-3.8-0.1-5.7-0.1c-1.7,0-3.5-0.1-5.2-0.1c-2.3,0-4.6-0.1-6.9-0.1C11.2,39.6,10.2,39.6,9.2,39.5  C9.2,39.6,9.2,39.5,9.2,39.5z"></path><path d="M90.4,62.8c-2.5,0-5,0.1-7.4,0.1c-2.4,0-4.7,0.1-7.1,0.1c-1.9,0-3.9,0.1-5.8,0.1c-2.1,0-4.1,0.1-6.2,0.1  c-3.2,0-6.3,0.1-9.5,0.1c-2.4,0-4.7,0-7.1,0c-2.9,0-5.7,0-8.6-0.1c-2.5,0-4.9-0.1-7.4-0.1c-2.1,0-4.1-0.1-6.2-0.1  c-2,0-3.9-0.1-5.9-0.1c-2.2,0-4.4-0.1-6.6-0.1c-1,0-1.9-0.1-2.9-0.1c0.7,0,1.3,0,2,0c1.5,0,3,0,4.5,0c1.9,0,3.8-0.1,5.7-0.1  c1.9,0,3.8-0.1,5.7-0.1c1.8,0,3.6-0.1,5.4-0.1c2.2,0,4.4,0,6.6-0.1c4.5-0.1,9.1-0.1,13.6-0.1c2,0,4,0,6.1,0c2.3,0,4.6,0.1,6.9,0.1  c1.8,0,3.6,0.1,5.4,0.1c1.9,0,3.8,0.1,5.7,0.1c1.9,0,3.7,0.1,5.6,0.1C85.3,62.7,87.9,62.8,90.4,62.8C90.4,62.8,90.4,62.8,90.4,62.8z  "></path><path d="M9.7,38.2c0.8,0,1.5,0,2.3,0c1.4,0,2.7,0,4.1,0c2.1,0,4.1-0.1,6.2-0.1c1.9,0,3.8-0.1,5.7-0.1c2,0,4-0.1,6.1-0.1  c2.6,0,5.2,0,7.7-0.1c4.1-0.1,8.1-0.1,12.2,0c3.1,0,6.3,0.1,9.4,0.1c2.5,0,5.1,0.1,7.6,0.1c1.9,0,3.8,0.1,5.7,0.1  c1.9,0,3.8,0.1,5.7,0.1c2.6,0,5.1,0.1,7.7,0.1c0.1,0,0.1,0,0.2,0c-0.6,0-1.2,0-1.9,0c-2.3,0-4.6,0.1-7,0.1c-1.9,0-3.8,0.1-5.7,0.1  c-2.1,0-4.3,0.1-6.4,0.1c-1.7,0-3.4,0-5.1,0.1c-2.1,0-4.1,0.1-6.2,0.1c-1,0-2,0-3,0c-3,0-6,0-8.9,0c-2.4,0-4.7,0-7.1-0.1  c-2.6,0-5.2-0.1-7.8-0.1c-1.6,0-3.2,0-4.8-0.1c-1.6,0-3.1-0.1-4.7-0.1c-2.5,0-5.1-0.1-7.6-0.1C12.7,38.3,11.2,38.2,9.7,38.2  C9.7,38.2,9.7,38.2,9.7,38.2z"></path><path d="M9.7,64.2c1.5,0,2.9,0,4.4,0c1.5,0,3,0,4.5-0.1c1.2,0,2.4,0,3.6,0c1.7,0,3.3-0.1,5-0.1c1.7,0,3.4-0.1,5.1-0.1  c1.1,0,2.2,0,3.2-0.1c2,0,4,0,6.1-0.1c4,0,8.1-0.1,12.1,0c3.2,0,6.4,0.1,9.6,0.1c2.5,0,5,0.1,7.4,0.1c1.9,0,3.8,0.1,5.7,0.1  c2,0,4.1,0.1,6.1,0.1c2.4,0,4.7,0.1,7.1,0.1c0,0,0.1,0,0.1,0c-0.3,0-0.5,0-0.8,0c-2.1,0.1-4.3,0.1-6.4,0.1c-1.2,0-2.3,0-3.5,0.1  c-1.3,0-2.5,0-3.8,0.1c-1.8,0-3.6,0.1-5.4,0.1c-1.9,0-3.8,0.1-5.7,0.1c-1.6,0-3.3,0.1-4.9,0.1c-0.9,0-1.8,0-2.7,0  c-3.2,0-6.4,0-9.6,0c-2.9,0-5.7,0-8.6-0.1c-2.5,0-4.9-0.1-7.4-0.1c-1.8,0-3.6,0-5.4-0.1c-2,0-4-0.1-6.1-0.1c-2.2,0-4.4-0.1-6.6-0.1  C12.1,64.3,10.9,64.2,9.7,64.2C9.7,64.2,9.7,64.2,9.7,64.2z"></path><path d="M89.7,36.9c-2.2,0-4.4,0.1-6.6,0.1c-1.3,0-2.5,0-3.8,0.1c-1.2,0-2.4,0-3.6,0.1c-1.7,0-3.4,0-5.1,0.1c-2.1,0-4.1,0.1-6.2,0.1  c-4.4,0.1-8.8,0.1-13.1,0.1c-3.2,0-6.5,0-9.7,0c-1,0-2.1,0-3.1,0c-2.3,0-4.6-0.1-6.9-0.1c-1.2,0-2.5,0-3.7-0.1c-1.2,0-2.5,0-3.7-0.1  c-1.2,0-2.5,0-3.7-0.1c-1.9,0-3.9-0.1-5.8-0.1c-1.5,0-3-0.1-4.6-0.1c0.8,0,1.7,0,2.5,0c1.5,0,2.9,0,4.4,0c2,0,4-0.1,6-0.1  c2.1,0,4.1-0.1,6.2-0.1c2.1,0,4.1-0.1,6.2-0.1c3.1,0,6.2-0.1,9.3-0.1c3.1,0,6.2,0,9.3,0c2.8,0,5.6,0,8.3,0.1c2.7,0,5.4,0.1,8.1,0.1  c2,0,4.1,0.1,6.1,0.1c1.9,0,3.9,0.1,5.8,0.1C84.7,36.7,87.2,36.8,89.7,36.9C89.7,36.8,89.7,36.8,89.7,36.9z"></path><path d="M10.5,65.5c0.9,0,1.7,0,2.6,0c1.4,0,2.8,0,4.2,0c1.2,0,2.3,0,3.5-0.1c2.1,0,4.1-0.1,6.2-0.1c1.3,0,2.6,0,3.9-0.1  c1.4,0,2.7,0,4.1,0c2.6,0,5.1-0.1,7.7-0.1c3.9,0,7.9,0,11.8,0c2.6,0,5.2,0,7.7,0.1c2.6,0,5.2,0.1,7.8,0.1c2,0,4,0.1,6,0.1  c2,0,4,0.1,6.1,0.1c2.3,0,4.6,0.1,6.9,0.1c0.1,0,0.2,0,0.2,0c-0.3,0-0.7,0-1,0c-2,0-4,0.1-6,0.1c-1.2,0-2.5,0-3.7,0.1  c-1.5,0-3,0-4.5,0.1c-2.1,0-4.1,0.1-6.2,0.1c-2.5,0-5,0.1-7.5,0.1c-4.9,0.1-9.8,0.1-14.8,0c-1.8,0-3.6,0-5.4,0c-1.9,0-3.9,0-5.8-0.1  c-2.3,0-4.6-0.1-7-0.1c-2.3,0-4.6-0.1-6.9-0.1c-2.4,0-4.9-0.1-7.3-0.1C12.2,65.6,11.3,65.6,10.5,65.5C10.5,65.5,10.5,65.5,10.5,65.5  z"></path><path d="M89.3,35.5c-0.4,0-0.7,0-1.1,0c-2,0-4.1,0.1-6.1,0.1c-1.7,0-3.4,0.1-5.1,0.1c-2.4,0-4.8,0.1-7.2,0.1c-2.5,0-4.9,0.1-7.4,0.1  c-4.5,0-9.1,0.1-13.6,0.1c-2.9,0-5.9,0-8.8,0c-2.3,0-4.7-0.1-7-0.1c-2,0-4-0.1-6-0.1c-1.8,0-3.6-0.1-5.5-0.1c-1.9,0-3.7,0-5.6-0.1  c-1.8,0-3.6-0.1-5.4-0.1c0.8,0,1.6,0,2.4,0c1.5,0,3.1,0,4.6,0c2.1,0,4.2-0.1,6.2-0.1c2,0,4.1-0.1,6.1-0.1c2.3,0,4.6-0.1,6.9-0.1  c3,0,6-0.1,8.9-0.1c2.9,0,5.9,0,8.8,0c1.7,0,3.5,0,5.2,0c2.9,0,5.7,0.1,8.6,0.1c2,0,3.9,0.1,5.9,0.1c2.4,0,4.8,0.1,7.2,0.1  c2.6,0,5.1,0.1,7.7,0.1C89.1,35.4,89.2,35.4,89.3,35.5z"></path><path d="M89,66.9c-0.5,0-1.1,0-1.6,0.1c-1.9,0-3.8,0.1-5.7,0.1c-1.4,0-2.8,0-4.2,0.1c-1.2,0-2.4,0-3.6,0c-2,0-4,0.1-6,0.1  c-1.9,0-3.8,0.1-5.7,0.1c-2.3,0-4.6,0-7,0.1c-2.8,0-5.6,0-8.3,0c-3.2,0-6.4,0-9.6-0.1c-2.7,0-5.4-0.1-8.2-0.1  c-2.3,0-4.6-0.1-6.9-0.1c-2.6,0-5.2-0.1-7.8-0.1c-1.1,0-2.1-0.1-3.2-0.1c0.6,0,1.2,0,1.8,0c1.5,0,3.1,0,4.6,0c1.8,0,3.6-0.1,5.5-0.1  c1.8,0,3.7-0.1,5.5-0.1c1.5,0,2.9-0.1,4.4-0.1c1,0,2.1,0,3.1,0c2.8,0,5.5-0.1,8.3-0.1c3.4,0,6.9,0,10.3,0c2.4,0,4.9,0,7.3,0  c2,0,4,0.1,6.1,0.1c1.8,0,3.6,0,5.4,0.1c1.8,0,3.6,0.1,5.4,0.1c2.8,0,5.7,0.1,8.5,0.1C87.9,66.9,88.4,66.9,89,66.9  C89,66.9,89,66.9,89,66.9z"></path><path d="M11.3,34.1c1.1,0,2.3,0,3.4,0c1.2,0,2.3,0,3.5,0c2.1,0,4.3-0.1,6.4-0.1c2.1,0,4.2-0.1,6.3-0.1c2.5,0,5.1-0.1,7.6-0.1  c5-0.1,9.9-0.1,14.9-0.1c2.4,0,4.7,0,7.1,0c1.8,0,3.6,0,5.4,0.1c1.5,0,3,0.1,4.6,0.1c1.3,0,2.6,0,3.9,0c2.3,0,4.6,0.1,6.9,0.1  c1.6,0,3.2,0,4.7,0.1c0.8,0,1.7,0,2.5,0.1c-0.4,0-0.7,0-1.1,0c-2.6,0-5.3,0.1-7.9,0.1c-2.1,0-4.2,0.1-6.2,0.1c-2.3,0-4.6,0.1-7,0.1  c-2.4,0-4.8,0-7.2,0.1c-4.6,0.1-9.2,0.1-13.8,0c-2.9,0-5.9-0.1-8.8-0.1c-2.2,0-4.4-0.1-6.6-0.1c-0.7,0-1.5,0-2.2,0  c-2.2,0-4.3-0.1-6.5-0.1c-2.2,0-4.3-0.1-6.5-0.1C13.5,34.2,12.4,34.1,11.3,34.1C11.3,34.1,11.3,34.1,11.3,34.1z"></path><path d="M88.3,68.3c-2.5,0-4.9,0.1-7.4,0.1c-1.4,0-2.8,0-4.2,0.1c-0.6,0-1.2,0-1.9,0c-2.8,0-5.7,0.1-8.5,0.1c-2.8,0-5.6,0.1-8.4,0.1  c-3.3,0-6.5,0.1-9.8,0c-3.1,0-6.1,0-9.2-0.1c-1.2,0-2.3,0-3.5,0c-2.3,0-4.6,0-6.8-0.1c-2.3,0-4.6-0.1-7-0.1c-1.5,0-2.9,0-4.4-0.1  c-2,0-4-0.1-6-0.1c0.8,0,1.6,0,2.4,0c1.5,0,2.9,0,4.4,0c1.9,0,3.8-0.1,5.7-0.1c2.4,0,4.9-0.1,7.3-0.1c0.9,0,1.9,0,2.8-0.1  c1.3,0,2.7,0,4,0c5-0.1,10.1-0.1,15.1-0.1c2.4,0,4.7,0,7.1,0c2.5,0,5.1,0.1,7.6,0.1c2.2,0,4.3,0.1,6.5,0.1c2.1,0,4.2,0.1,6.3,0.1  C83.1,68.2,85.7,68.2,88.3,68.3C88.3,68.3,88.3,68.3,88.3,68.3z"></path><path d="M11.8,32.7c0.9,0,1.7,0,2.6,0c1.5,0,3,0,4.5,0c2.1,0,4.3-0.1,6.4-0.1c2.4,0,4.8-0.1,7.2-0.1c1.6,0,3.2,0,4.8-0.1  c2.7,0,5.5-0.1,8.2-0.1c2.9,0,5.7,0,8.6,0c1.2,0,2.5,0,3.7,0c2.9,0,5.7,0.1,8.6,0.1c2.3,0,4.6,0.1,6.9,0.1c2.2,0,4.3,0.1,6.5,0.1  c2.6,0,5.2,0.1,7.7,0.1c0,0,0.1,0,0.1,0c-0.4,0-0.8,0-1.2,0c-1.9,0-3.7,0.1-5.6,0.1c-1.4,0-2.7,0-4.1,0.1c-0.8,0-1.6,0-2.4,0  c-2.1,0-4.1,0.1-6.2,0.1c-1,0-2.1,0-3.1,0c-2.3,0-4.6,0.1-7,0.1c-2.3,0-4.6,0-7,0c-2,0-4,0-6.1,0c-2.7,0-5.4,0-8.1-0.1  c-2.9,0-5.8-0.1-8.7-0.1c-2.1,0-4.2-0.1-6.3-0.1c-2.3,0-4.6-0.1-6.9-0.1C14.1,32.8,12.9,32.8,11.8,32.7  C11.8,32.7,11.8,32.7,11.8,32.7z"></path><path d="M87.7,69.7c-0.5,0-1.1,0-1.6,0c-1.9,0-3.7,0.1-5.6,0.1c-1.6,0-3.3,0-4.9,0.1c-1.2,0-2.5,0-3.7,0c-2.4,0-4.9,0.1-7.3,0.1  c-4,0-7.9,0.1-11.9,0.1c-3.6,0-7.2,0-10.8,0c-1.3,0-2.6,0-3.9,0c-2.2,0-4.5,0-6.7-0.1c-2.7,0-5.5-0.1-8.2-0.1  c-2.6,0-5.2-0.1-7.8-0.1c-1,0-2-0.1-3-0.1c0.7,0,1.3,0,2,0c1.6,0,3.2,0,4.8,0c2,0,4-0.1,6.1-0.1c2.4,0,4.9-0.1,7.3-0.1  c2.4,0,4.8-0.1,7.2-0.1c3.7,0,7.3,0,11-0.1c2.4,0,4.7,0,7.1,0c2.2,0,4.3,0,6.5,0.1c2.7,0,5.4,0.1,8.1,0.1c2.4,0,4.8,0.1,7.2,0.1  C82.2,69.6,84.9,69.6,87.7,69.7C87.6,69.6,87.6,69.6,87.7,69.7z"></path><path d="M87.6,31.4c-2.8,0-5.6,0.1-8.3,0.1c-2.4,0-4.9,0.1-7.3,0.1c-2,0-4,0.1-6,0.1c-3.7,0-7.4,0.1-11.1,0.1c-2.9,0-5.7,0-8.6,0  c-1.9,0-3.8,0-5.7,0c-2,0-4,0-6-0.1c-1.6,0-3.2,0-4.8,0c-1.9,0-3.9-0.1-5.8-0.1c-2.7,0-5.3-0.1-8-0.1c-1.2,0-2.3-0.1-3.5-0.1  c1.2,0,2.3,0,3.5,0c2,0,4-0.1,6-0.1c1.4,0,2.7,0,4.1,0c2.2,0,4.3-0.1,6.5-0.1c2.3,0,4.5-0.1,6.8-0.1c2,0,3.9,0,5.9,0  c2.9,0,5.8,0,8.7,0c3.6,0,7.3,0,10.9,0.1c2.5,0,5,0.1,7.5,0.1c2.3,0,4.5,0.1,6.8,0.1c2.7,0,5.4,0.1,8.1,0.1  C87.4,31.3,87.5,31.3,87.6,31.4C87.6,31.3,87.6,31.4,87.6,31.4z"></path><path d="M87,71.1c-2.7,0-5.4,0.1-8.1,0.1c-1.3,0-2.6,0-3.8,0.1c-1.5,0-3,0-4.5,0.1c-1.6,0-3.1,0-4.7,0.1c-1.8,0-3.6,0-5.4,0  c-4.4,0-8.7,0-13.1,0.1c-2.2,0-4.4,0-6.6,0c-3.3,0-6.5-0.1-9.8-0.1c-2.3,0-4.6-0.1-6.9-0.1c-2.6,0-5.2-0.1-7.8-0.1c-1,0-2-0.1-3-0.1  c0.8,0,1.6,0,2.4,0c1.5,0,3.1,0,4.6,0c2.2,0,4.5-0.1,6.7-0.1c2.5,0,5.1-0.1,7.6-0.1c3.5,0,7-0.1,10.6-0.1c2.1,0,4.3,0,6.4,0  c3.4,0,6.7,0,10.1,0.1c1,0,2,0,3,0c2.6,0,5.3,0.1,7.9,0.1c2,0,4.1,0.1,6.1,0.1C81.3,70.9,84.1,71,87,71.1C87,71,87,71,87,71.1z"></path><path d="M13.2,30c1.7,0,3.3,0,5,0c1.6,0,3.2,0,4.8-0.1c0.7,0,1.3,0,2,0c1,0,1.9,0,2.9,0c2,0,4-0.1,6.1-0.1c3.1,0,6.2-0.1,9.3-0.1  c5.3,0,10.5,0,15.8,0c1.4,0,2.8,0,4.1,0c2,0,4,0,6,0.1c2.7,0,5.5,0.1,8.2,0.1c2.3,0,4.6,0,6.8,0.1c0.7,0,1.5,0,2.2,0.1  c-0.3,0-0.6,0-0.9,0c-2.1,0.1-4.3,0.1-6.4,0.1c-1.5,0-3.1,0-4.6,0.1c-1.3,0-2.6,0-3.9,0c-2.4,0-4.8,0.1-7.2,0.1  c-3,0-5.9,0.1-8.9,0.1c-3,0-5.9,0-8.9,0c-2.1,0-4.2,0-6.3,0c-2.8,0-5.5,0-8.3-0.1c-2.3,0-4.7-0.1-7-0.1c-2.5,0-5-0.1-7.5-0.1  C15.4,30.1,14.3,30,13.2,30C13.2,30,13.2,30,13.2,30z"></path><path d="M13.8,72.4c1.1,0,2.2,0,3.3,0c2.2,0,4.5-0.1,6.7-0.1c1.4,0,2.9,0,4.3,0c2.7,0,5.4-0.1,8.1-0.1c3.4,0,6.7-0.1,10.1-0.1  c3.7,0,7.5,0,11.2,0c1.8,0,3.6,0,5.4,0c2.1,0,4.2,0,6.2,0.1c2.3,0,4.6,0.1,6.8,0.1c2.7,0,5.5,0.1,8.2,0.1c0.7,0,1.3,0,2,0  c-0.4,0-0.8,0-1.1,0c-1.9,0-3.8,0.1-5.7,0.1c-1.1,0-2.3,0-3.4,0c-2.2,0-4.4,0.1-6.6,0.1c-2.9,0-5.8,0.1-8.7,0.1c-1.2,0-2.4,0-3.6,0  c-3.5,0-7,0-10.5,0c-1.1,0-2.1,0-3.2,0c-3,0-6,0-8.9-0.1c-3.2,0-6.3-0.1-9.5-0.1c-2.6,0-5.2-0.1-7.8-0.1  C16.1,72.5,15,72.4,13.8,72.4C13.8,72.4,13.8,72.4,13.8,72.4z"></path><path d="M85.6,28.6c-0.9,0-1.7,0-2.6,0.1c-1.5,0-2.9,0-4.4,0.1c-1.6,0-3.2,0-4.7,0.1c-1.6,0-3.2,0-4.7,0.1c-2.1,0-4.1,0-6.2,0.1  c-1.7,0-3.5,0-5.2,0c-3.9,0-7.9,0-11.8,0c-3.3,0-6.7-0.1-10-0.1c-1,0-1.9,0-2.9,0c-1.5,0-3,0-4.5-0.1c-0.8,0-1.6,0-2.5,0  c-2.8,0-5.6-0.1-8.3-0.1c-1.3,0-2.6-0.1-3.8-0.1c0.9,0,1.8,0,2.7,0c1.7,0,3.3,0,5,0c2,0,3.9,0,5.9-0.1c2.9,0,5.9-0.1,8.8-0.1  c2.6,0,5.2-0.1,7.8-0.1c3.5,0,7.1,0,10.6,0c2.9,0,5.8,0,8.8,0.1c2,0,4,0,6,0.1c2.6,0,5.2,0.1,7.8,0.1c2.1,0,4.3,0,6.4,0.1  C84.3,28.6,85,28.6,85.6,28.6C85.6,28.6,85.6,28.6,85.6,28.6z"></path><path d="M85.2,73.8c-0.8,0-1.6,0-2.4,0c-2.7,0-5.3,0.1-8,0.1c-2.2,0-4.4,0.1-6.6,0.1c-3.4,0-6.8,0.1-10.2,0.1c-2.4,0-4.8,0-7.2,0  c-3.8,0-7.7,0-11.5,0c-1.5,0-3.1,0-4.6,0c-2.8,0-5.6-0.1-8.3-0.1c-2.7,0-5.5-0.1-8.2-0.1c-1.2,0-2.3-0.1-3.5-0.1c0.8,0,1.5,0,2.3,0  c1.7,0,3.4,0,5.2,0c2.6,0,5.2-0.1,7.7-0.1c2.9,0,5.8-0.1,8.7-0.1c2.3,0,4.5,0,6.8-0.1c2.2,0,4.4,0,6.7,0c2.6,0,5.2,0,7.8,0  c2.7,0,5.4,0.1,8.2,0.1c2.3,0,4.6,0,6.9,0.1c2.3,0,4.6,0.1,6.9,0.1C82.8,73.7,84,73.7,85.2,73.8C85.2,73.7,85.2,73.8,85.2,73.8z"></path><path d="M85.1,27.3c-0.7,0-1.4,0-2.1,0c-2.8,0-5.6,0.1-8.3,0.1c-2.7,0-5.4,0.1-8.1,0.1c-4.4,0-8.7,0.1-13.1,0.1c-1.5,0-3,0-4.5,0  c-4.4,0-8.8,0-13.2-0.1c-2.5,0-5,0-7.5-0.1c-3.4,0-6.7-0.1-10.1-0.1c-1,0-2-0.1-2.9-0.1c1.2,0,2.5,0,3.7,0c1.3,0,2.7,0,4,0  c2,0,3.9,0,5.9-0.1c3.2,0,6.4-0.1,9.6-0.1c4,0,7.9,0,11.9-0.1c2.2,0,4.5,0,6.7,0c3.3,0,6.6,0.1,9.9,0.1c2.5,0,5,0.1,7.4,0.1  c3,0,6,0.1,9,0.1C83.9,27.2,84.5,27.2,85.1,27.3C85.1,27.2,85.1,27.2,85.1,27.3z"></path><path d="M15.4,75.1c1.4,0,2.7,0,4.1,0c1.3,0,2.6,0,3.9,0c2.7,0,5.4-0.1,8.2-0.1c3.6,0,7.1-0.1,10.7-0.1c4.2,0,8.4,0,12.6,0  c2.9,0,5.8,0,8.7,0.1c1.2,0,2.5,0,3.7,0c1.8,0,3.6,0,5.4,0.1c1.9,0,3.7,0.1,5.6,0.1c1.3,0,2.7,0,4,0c0.7,0,1.4,0,2.1,0  c-0.9,0-1.8,0-2.7,0.1c-2.2,0-4.3,0.1-6.5,0.1c-2.3,0-4.6,0.1-6.9,0.1c-1,0-2,0-3.1,0c-2.7,0-5.4,0-8.1,0.1c-2.6,0-5.3,0-7.9,0  c-1.8,0-3.6,0-5.4,0c-2.4,0-4.8,0-7.2,0c-3,0-6-0.1-8.9-0.1c-2.8,0-5.7-0.1-8.5-0.1C18,75.2,16.7,75.2,15.4,75.1  C15.4,75.1,15.4,75.1,15.4,75.1z"></path><path d="M84.2,25.9c-0.8,0-1.6,0-2.4,0c-2.2,0-4.5,0.1-6.7,0.1c-3,0-6.1,0.1-9.1,0.1c-5,0-10,0.1-14.9,0.1c-3.8,0-7.6,0-11.4,0  c-2.8,0-5.6-0.1-8.4-0.1c-0.8,0-1.6,0-2.5,0c-2.8,0-5.6-0.1-8.4-0.1c-1.5,0-2.9-0.1-4.4-0.1c0.7,0,1.5,0,2.2,0c1.8,0,3.6,0,5.5,0  c2.6,0,5.2-0.1,7.8-0.1c2.2,0,4.3,0,6.5-0.1c3.3,0,6.6,0,9.9,0c3.2,0,6.4,0,9.6,0c2.1,0,4.2,0,6.3,0c3.1,0,6.1,0.1,9.2,0.1  c3.6,0,7.3,0.1,10.9,0.1C83.9,25.9,84,25.9,84.2,25.9C84.2,25.9,84.2,25.9,84.2,25.9z"></path><path d="M83.6,76.5c-0.8,0-1.6,0-2.4,0.1c-2.7,0-5.4,0.1-8.1,0.1c-2.9,0-5.9,0-8.8,0.1c-6.5,0.1-13,0.1-19.6,0.1c-2,0-4.1,0-6.1,0  c-1.9,0-3.9,0-5.8,0c-2.2,0-4.4,0-6.6-0.1c-2,0-4,0-6-0.1c-1.2,0-2.5-0.1-3.7-0.1c0.8,0,1.7,0,2.5,0c1.1,0,2.2,0,3.3,0  c1.8,0,3.6-0.1,5.4-0.1c1.8,0,3.7,0,5.5,0c3.4,0,6.7-0.1,10.1-0.1c3.8,0,7.6,0,11.4,0c3.5,0,7.1,0,10.6,0.1c2.9,0,5.7,0.1,8.6,0.1  c3.1,0,6.3,0.1,9.4,0.1C83.5,76.5,83.5,76.5,83.6,76.5z"></path><path d="M16.7,24.5c0.9,0,1.9,0,2.8,0c2.1,0,4.1,0,6.2,0c2.4,0,4.7,0,7.1-0.1c3.1,0,6.2-0.1,9.3-0.1c4.8,0,9.6,0,14.4,0  c2.4,0,4.7,0,7.1,0c3.2,0,6.3,0.1,9.5,0.1c3.2,0,6.3,0.1,9.5,0.1c0.1,0,0.1,0,0.2,0c-0.6,0-1.3,0-1.9,0c-3.1,0-6.2,0.1-9.3,0.1  c-2.5,0-5,0.1-7.6,0.1c-4.1,0-8.3,0.1-12.4,0.1c-4,0-8.1,0-12.1,0c-2.8,0-5.6-0.1-8.4-0.1c-2.9,0-5.8-0.1-8.7-0.1  C20.5,24.6,18.6,24.6,16.7,24.5C16.7,24.5,16.7,24.5,16.7,24.5z"></path><path d="M17.7,77.8c0.9,0,1.8,0,2.6,0c1.9,0,3.7,0,5.6,0c3.4,0,6.9,0,10.3-0.1c6.4-0.1,12.7-0.1,19.1-0.1c2.5,0,5,0,7.6,0  c2.6,0,5.2,0,7.8,0.1c3,0,6,0.1,9.1,0.1c0.9,0,1.7,0,2.6,0c-1.1,0-2.2,0.1-3.4,0.1c-1.9,0-3.8,0-5.7,0.1c-2.2,0-4.4,0.1-6.7,0.1  c-1.5,0-3.1,0-4.6,0c-2,0-4.1,0-6.1,0c-2.9,0-5.7,0-8.6,0c-1.5,0-3.1,0-4.6,0c-2.6,0-5.1,0-7.7-0.1c-2.5,0-4.9,0-7.4-0.1  c-1.7,0-3.3,0-5,0C21,77.9,19.4,77.9,17.7,77.8C17.8,77.9,17.7,77.9,17.7,77.8z"></path><path d="M17.9,23.1c0.8,0,1.6,0,2.5,0c1.2,0,2.3,0,3.5,0c2.3,0,4.5-0.1,6.8-0.1c2.3,0,4.5,0,6.8,0c3.5,0,7,0,10.5-0.1  c3,0,6.1,0,9.1,0c1.4,0,2.9,0,4.3,0c3.4,0,6.9,0.1,10.3,0.1c2.6,0,5.3,0.1,7.9,0.1c0.8,0,1.6,0,2.5,0c-1.8,0-3.6,0.1-5.4,0.1  c-2.3,0-4.6,0-7,0.1c-4.1,0-8.2,0.1-12.4,0.1c-4.5,0-9,0-13.4,0c-3.4,0-6.8,0-10.2-0.1c-2.7,0-5.3-0.1-8-0.1c-1.4,0-2.7,0-4.1,0  C20.4,23.2,19.2,23.2,17.9,23.1C17.9,23.1,17.9,23.1,17.9,23.1z"></path><path d="M18.7,79.2c0.9,0,1.7,0,2.6,0c2.1,0,4.3,0,6.4,0c3.8,0,7.5-0.1,11.3-0.1c5.3,0,10.6,0,15.9,0c1.7,0,3.5,0,5.2,0  c2.4,0,4.7,0,7.1,0.1c2.4,0,4.8,0.1,7.2,0.1c2.1,0,4.3,0,6.4,0c0.1,0,0.2,0,0.3,0c-0.9,0-1.7,0-2.6,0c-3.5,0-7,0.1-10.5,0.1  c-3.6,0-7.1,0.1-10.7,0.1c-4.5,0-9,0-13.4,0c-2.7,0-5.4,0-8.1,0c-3.7,0-7.4-0.1-11.1-0.1C22.6,79.3,20.7,79.3,18.7,79.2  C18.7,79.2,18.7,79.2,18.7,79.2z"></path><path d="M80.8,21.8c-1.1,0-2.2,0-3.2,0.1c-3.2,0-6.4,0.1-9.7,0.1c-3.6,0-7.2,0.1-10.8,0.1c-4.5,0-8.9,0-13.4,0c-2.7,0-5.5,0-8.2,0  c-3.1,0-6.2,0-9.3-0.1c-2.3,0-4.6-0.1-6.9-0.1c0.8,0,1.7,0,2.5,0c2.2,0,4.4,0,6.6,0c3.1,0,6.2-0.1,9.3-0.1c1.3,0,2.6,0,4,0  c2.7,0,5.4,0,8.2,0c2.5,0,5,0,7.4,0c3.5,0,6.9,0,10.4,0.1c4.3,0,8.6,0.1,12.9,0.1C80.6,21.8,80.7,21.8,80.8,21.8  C80.8,21.8,80.8,21.8,80.8,21.8z"></path><path d="M20,80.6c1.7,0,3.4,0,5.1,0c1.6,0,3.2,0,4.8,0c3.3,0,6.7-0.1,10-0.1c4.5,0,9,0,13.4,0c4.5,0,8.9,0,13.4,0.1  c3.4,0,6.9,0.1,10.3,0.1c0.9,0,1.8,0,2.7,0.1c-0.9,0-1.8,0-2.8,0c-2.9,0-5.8,0-8.8,0.1c-7.9,0.1-15.8,0.1-23.7,0.1  c-2.8,0-5.7,0-8.5,0c-3.3,0-6.6-0.1-9.9-0.1c-2,0-4-0.1-6-0.1C20.1,80.6,20,80.6,20,80.6z"></path><path d="M79.4,20.4c-0.8,0-1.6,0-2.4,0c-2.4,0-4.8,0.1-7.2,0.1c-1.6,0-3.2,0-4.8,0c-6.9,0.1-13.9,0.1-20.8,0.1c-2.8,0-5.5,0-8.3,0  c-3.1,0-6.2-0.1-9.3-0.1c-2,0-4-0.1-6-0.1c0.1,0,0.3,0,0.4,0c2.4,0,4.9,0,7.3,0c1,0,1.9,0,2.9,0c6.9,0,13.8-0.1,20.6-0.1  c4.5,0,9,0,13.4,0c3.9,0,7.8,0.1,11.7,0.1C77.8,20.4,78.6,20.4,79.4,20.4C79.4,20.4,79.4,20.4,79.4,20.4z"></path><path d="M21.4,82c1.1,0,2.1,0,3.2,0c2.4,0,4.7,0,7.1,0c2.7,0,5.5-0.1,8.2-0.1c1.6,0,3.2,0,4.8,0c2.8,0,5.6,0,8.3,0  c4.6,0,9.1,0,13.7,0.1c2.8,0,5.7,0,8.5,0.1c1,0,2,0,3,0.1c-1.1,0-2.2,0-3.4,0.1c-3.1,0-6.3,0.1-9.4,0.1c-2.6,0-5.3,0-7.9,0.1  c-0.9,0-1.9,0-2.8,0c-4.1,0-8.1,0-12.2,0c-4.6,0-9.1,0-13.7-0.1c-1.9,0-3.9-0.1-5.8-0.1C22.6,82,22,82,21.4,82  C21.4,82,21.4,82,21.4,82z"></path><path d="M22.1,19c18.5-0.2,37-0.2,55.6,0c-0.7,0-1.4,0-2.1,0c-2.6,0-5.1,0.1-7.7,0.1c-1.6,0-3.3,0-4.9,0c-2.2,0-4.5,0-6.7,0  c-3.6,0-7.2,0-10.8,0c-1.9,0-3.8,0-5.7,0c-2.8,0-5.7,0-8.5-0.1c-1.6,0-3.2,0-4.7,0C25,19.1,23.5,19.1,22.1,19z"></path><path d="M23.2,83.3c17.9-0.2,35.8-0.2,53.6,0c-1,0-1.9,0-2.9,0c-2.7,0-5.4,0.1-8.1,0.1c-2.6,0-5.1,0-7.7,0c-4.5,0-9,0-13.5,0  c-1.9,0-3.8,0-5.7,0c-3.7,0-7.5,0-11.2-0.1C26.2,83.4,24.7,83.4,23.2,83.3z"></path><path d="M23.6,17.7c17.5-0.2,35.1-0.2,52.6,0c-0.8,0-1.6,0-2.5,0c-1.4,0-2.9,0-4.3,0.1c-2.4,0-4.8,0-7.2,0c-2.1,0-4.1,0-6.2,0  c-3.8,0-7.6,0-11.3,0c-4.3,0-8.5,0-12.8-0.1C29.2,17.8,26.4,17.7,23.6,17.7z"></path><path d="M24.8,84.7c16.7-0.2,33.4-0.2,50.1,0c-1.1,0-2.2,0-3.4,0c-4.4,0-8.8,0.1-13.1,0.1c-4.9,0-9.7,0-14.6,0c-3.3,0-6.5,0-9.8,0  C30.9,84.8,27.9,84.8,24.8,84.7z"></path><path d="M25.4,16.3c3.8-0.1,44.5-0.1,48.8,0c-0.9,0-1.9,0-2.8,0c-4.6,0.1-9.2,0.1-13.8,0.1c-4.2,0-8.5,0-12.7,0c-3.3,0-6.6,0-9.8,0  c-1.6,0-3.2,0-4.7,0c-1.5,0-3.1-0.1-4.6-0.1C25.6,16.3,25.6,16.3,25.4,16.3z"></path><path d="M26.9,86.1c4-0.1,41.1-0.1,46,0c-1.1,0-2.2,0-3.3,0c-4,0-8.1,0.1-12.1,0.1c-6.1,0-12.1,0-18.2,0c-2.2,0-4.5,0-6.7,0  C30.6,86.1,28.8,86.1,26.9,86.1z"></path><path d="M72.1,14.9c-0.7,0-1.5,0-2.2,0c-2.1,0-4.1,0.1-6.2,0.1c-2.3,0-4.6,0-7,0c-6.2,0-12.4,0-18.6,0c-1.7,0-3.4,0-5.1,0  c-1.8,0-3.7-0.1-5.5-0.1C29.3,14.8,69.5,14.8,72.1,14.9z"></path><path d="M70.5,87.4c-5.3,0.2-33.2,0.2-41.7,0C42.8,87.3,56.7,87.3,70.5,87.4z"></path><path d="M70,13.6c-13.3,0.2-26.6,0.2-39.9,0C31.2,13.5,68,13.5,70,13.6z"></path><path d="M31.6,88.8c2.7-0.1,33.6-0.1,36.4,0c-0.9,0-1.7,0-2.6,0c-1.7,0-3.4,0-5.1,0.1c-1.9,0-3.8,0-5.7,0c-4.4,0-8.8,0-13.2,0  c-2.1,0-4.2,0-6.3-0.1C34.1,88.8,32.8,88.8,31.6,88.8z"></path><path d="M32.6,12.2c11.5-0.1,23.1-0.1,34.6,0c-3.8,0-7.7,0.1-11.5,0.1c-3.8,0-7.7,0-11.5,0C40.3,12.3,36.5,12.2,32.6,12.2z"></path><path d="M34.4,90.2c10.1-0.1,20.2-0.1,30.3,0C54.6,90.3,44.5,90.3,34.4,90.2z"></path><path d="M36.4,10.8c9.2,0,18.3,0,27.5,0C54.8,10.9,45.6,10.9,36.4,10.8z"></path><path d="M39.2,91.5c7.1,0,14.2,0,21.4,0C53.4,91.6,46.3,91.6,39.2,91.5z"></path><path d="M41.2,9.4c5.8,0,11.5,0,17.3,0c0,0,0,0,0,0C52.7,9.5,46.9,9.5,41.2,9.4C41.2,9.5,41.2,9.5,41.2,9.4z"></path><path d="M86.3,28.6C86.3,28.6,86.3,28.6,86.3,28.6C86.3,28.6,86.3,28.6,86.3,28.6C86.3,28.6,86.3,28.6,86.3,28.6z"></path><polygon points="83.6,24.5 83.5,24.5 83.5,24.5 "></polygon><path d="M65.2,90.2C65.1,90.2,65.1,90.2,65.2,90.2C65.1,90.2,65.1,90.2,65.2,90.2C65.1,90.2,65.1,90.2,65.2,90.2  C65.1,90.2,65.1,90.2,65.2,90.2z"></path><polygon points="60.3,9.5 60.3,9.5 60.3,9.5 "></polygon><polygon points="26.2,86.1 26.2,86.1 26.2,86.1 "></polygon><polygon points="74.7,16.3 74.7,16.3 74.7,16.3 "></polygon><polygon points="85.6,73.7 85.6,73.7 85.6,73.8 "></polygon><polygon points="39.9,9.5 39.9,9.5 39.9,9.5 "></polygon></g>
</svg>
</g><g opacity="1" transform="rotate(0 445.7834 667.4253)">
<svg width="392.7318" height="24" x="445.7834" y="667.4253" version="1.1" preserveAspectRatio="none" viewBox="0 -29.68 488.96000000000004 29.88">
  <g transform="matrix(1 0 0 1 0 0)" class="text"><path id="id-6izo4zJp19" d="M22.48 0L22.48-25.44L12.64-25.44L12.64-28L35.28-28L35.28-25.44L25.44-25.44L25.44 0L22.48 0Z M52.12-21.20Q56.08-21.20 58.42-18.90Q60.76-16.60 60.76-12.20L60.76-12.20L60.76 0L57.92 0L57.92-11.92Q57.92-15.20 56.28-16.92Q54.64-18.64 51.60-18.64L51.60-18.64Q48.20-18.64 46.22-16.62Q44.24-14.60 44.24-11.04L44.24-11.04L44.24 0L41.40 0L41.40-29.68L44.24-29.68L44.24-17.36Q45.40-19.20 47.44-20.20Q49.48-21.20 52.12-21.20L52.12-21.20Z M88.92-10.52L88.88-9.64L71.28-9.64Q71.52-6.36 73.80-4.34Q76.08-2.32 79.56-2.32L79.56-2.32Q81.52-2.32 83.16-3.02Q84.80-3.72 86-5.08L86-5.08L87.60-3.24Q86.20-1.56 84.10-0.68Q82 0.20 79.48 0.20L79.48 0.20Q76.24 0.20 73.74-1.18Q71.24-2.56 69.84-5Q68.44-7.44 68.44-10.52L68.44-10.52Q68.44-13.60 69.78-16.04Q71.12-18.48 73.46-19.84Q75.80-21.20 78.72-21.20L78.72-21.20Q81.64-21.20 83.96-19.84Q86.28-18.48 87.60-16.06Q88.92-13.64 88.92-10.52L88.92-10.52ZM78.72-18.76Q75.68-18.76 73.62-16.82Q71.56-14.88 71.28-11.76L71.28-11.76L86.20-11.76Q85.92-14.88 83.86-16.82Q81.80-18.76 78.72-18.76L78.72-18.76Z M117.92 0.20Q114.80 0.20 112.34-1.16Q109.88-2.52 108.48-4.98Q107.08-7.44 107.08-10.52L107.08-10.52Q107.08-13.60 108.48-16.04Q109.88-18.48 112.34-19.84Q114.80-21.20 117.92-21.20L117.92-21.20Q120.64-21.20 122.78-20.14Q124.92-19.08 126.16-17.04L126.16-17.04L124.04-15.60Q123-17.16 121.40-17.94Q119.80-18.72 117.92-18.72L117.92-18.72Q115.64-18.72 113.82-17.70Q112-16.68 110.98-14.80Q109.96-12.92 109.96-10.52L109.96-10.52Q109.96-8.08 110.98-6.22Q112-4.36 113.82-3.34Q115.64-2.32 117.92-2.32L117.92-2.32Q119.80-2.32 121.40-3.08Q123-3.84 124.04-5.40L124.04-5.40L126.16-3.96Q124.92-1.92 122.76-0.86Q120.60 0.20 117.92 0.20L117.92 0.20Z M141.96 0.20Q138.92 0.20 136.48-1.18Q134.04-2.56 132.64-5Q131.24-7.44 131.24-10.52L131.24-10.52Q131.24-13.60 132.64-16.04Q134.04-18.48 136.48-19.84Q138.92-21.20 141.96-21.20L141.96-21.20Q145.00-21.20 147.44-19.84Q149.88-18.48 151.26-16.04Q152.64-13.60 152.64-10.52L152.64-10.52Q152.64-7.44 151.26-5Q149.88-2.56 147.44-1.18Q145.00 0.20 141.96 0.20L141.96 0.20ZM141.96-2.32Q144.20-2.32 145.98-3.34Q147.76-4.36 148.76-6.24Q149.76-8.12 149.76-10.52L149.76-10.52Q149.76-12.92 148.76-14.80Q147.76-16.68 145.98-17.70Q144.20-18.72 141.96-18.72L141.96-18.72Q139.72-18.72 137.94-17.70Q136.16-16.68 135.14-14.80Q134.12-12.92 134.12-10.52L134.12-10.52Q134.12-8.12 135.14-6.24Q136.16-4.36 137.94-3.34Q139.72-2.32 141.96-2.32L141.96-2.32Z M176.80-29.68L179.64-29.68L179.64 0L176.92 0L176.92-4.16Q175.64-2.04 173.54-0.92Q171.44 0.20 168.80 0.20L168.80 0.20Q165.84 0.20 163.44-1.16Q161.04-2.52 159.68-4.96Q158.32-7.40 158.32-10.52L158.32-10.52Q158.32-13.64 159.68-16.08Q161.04-18.52 163.44-19.86Q165.84-21.20 168.80-21.20L168.80-21.20Q171.36-21.20 173.42-20.14Q175.48-19.08 176.80-17.04L176.80-17.04L176.80-29.68ZM169.04-2.32Q171.24-2.32 173.02-3.34Q174.80-4.36 175.82-6.24Q176.84-8.12 176.84-10.52L176.84-10.52Q176.84-12.92 175.82-14.80Q174.80-16.68 173.02-17.70Q171.24-18.72 169.04-18.72L169.04-18.72Q166.80-18.72 165.02-17.70Q163.24-16.68 162.22-14.80Q161.20-12.92 161.20-10.52L161.20-10.52Q161.20-8.12 162.22-6.24Q163.24-4.36 165.02-3.34Q166.80-2.32 169.04-2.32L169.04-2.32Z M207.92-10.52L207.88-9.64L190.28-9.64Q190.52-6.36 192.80-4.34Q195.08-2.32 198.56-2.32L198.56-2.32Q200.52-2.32 202.16-3.02Q203.80-3.72 205-5.08L205-5.08L206.60-3.24Q205.20-1.56 203.10-0.68Q201 0.20 198.48 0.20L198.48 0.20Q195.24 0.20 192.74-1.18Q190.24-2.56 188.84-5Q187.44-7.44 187.44-10.52L187.44-10.52Q187.44-13.60 188.78-16.04Q190.12-18.48 192.46-19.84Q194.80-21.20 197.72-21.20L197.72-21.20Q200.64-21.20 202.96-19.84Q205.28-18.48 206.60-16.06Q207.92-13.64 207.92-10.52L207.92-10.52ZM197.72-18.76Q194.68-18.76 192.62-16.82Q190.56-14.88 190.28-11.76L190.28-11.76L205.20-11.76Q204.92-14.88 202.86-16.82Q200.80-18.76 197.72-18.76L197.72-18.76Z M236.92 0.20Q233.80 0.20 231.34-1.16Q228.88-2.52 227.48-4.98Q226.08-7.44 226.08-10.52L226.08-10.52Q226.08-13.60 227.48-16.04Q228.88-18.48 231.34-19.84Q233.80-21.20 236.92-21.20L236.92-21.20Q239.64-21.20 241.78-20.14Q243.92-19.08 245.16-17.04L245.16-17.04L243.04-15.60Q242.00-17.16 240.40-17.94Q238.80-18.72 236.92-18.72L236.92-18.72Q234.64-18.72 232.82-17.70Q231.00-16.68 229.98-14.80Q228.96-12.92 228.96-10.52L228.96-10.52Q228.96-8.08 229.98-6.22Q231.00-4.36 232.82-3.34Q234.64-2.32 236.92-2.32L236.92-2.32Q238.80-2.32 240.40-3.08Q242.00-3.84 243.04-5.40L243.04-5.40L245.16-3.96Q243.92-1.92 241.76-0.86Q239.60 0.20 236.92 0.20L236.92 0.20Z M260.96 0.20Q257.92 0.20 255.48-1.18Q253.04-2.56 251.64-5Q250.24-7.44 250.24-10.52L250.24-10.52Q250.24-13.60 251.64-16.04Q253.04-18.48 255.48-19.84Q257.92-21.20 260.96-21.20L260.96-21.20Q264-21.20 266.44-19.84Q268.88-18.48 270.26-16.04Q271.64-13.60 271.64-10.52L271.64-10.52Q271.64-7.44 270.26-5Q268.88-2.56 266.44-1.18Q264 0.20 260.96 0.20L260.96 0.20ZM260.96-2.32Q263.20-2.32 264.98-3.34Q266.76-4.36 267.76-6.24Q268.76-8.12 268.76-10.52L268.76-10.52Q268.76-12.92 267.76-14.80Q266.76-16.68 264.98-17.70Q263.20-18.72 260.96-18.72L260.96-18.72Q258.72-18.72 256.94-17.70Q255.16-16.68 254.14-14.80Q253.12-12.92 253.12-10.52L253.12-10.52Q253.12-8.12 254.14-6.24Q255.16-4.36 256.94-3.34Q258.72-2.32 260.96-2.32L260.96-2.32Z M305.68-21.20Q309.64-21.20 311.90-18.92Q314.16-16.64 314.16-12.20L314.16-12.20L314.16 0L311.32 0L311.32-11.92Q311.32-15.20 309.74-16.92Q308.16-18.64 305.28-18.64L305.28-18.64Q302.00-18.64 300.12-16.62Q298.24-14.60 298.24-11.04L298.24-11.04L298.24 0L295.40 0L295.40-11.92Q295.40-15.20 293.82-16.92Q292.24-18.64 289.32-18.64L289.32-18.64Q286.08-18.64 284.18-16.62Q282.28-14.60 282.28-11.04L282.28-11.04L282.28 0L279.44 0L279.44-21.04L282.16-21.04L282.16-17.20Q283.28-19.12 285.28-20.16Q287.28-21.20 289.88-21.20L289.88-21.20Q292.52-21.20 294.46-20.08Q296.40-18.96 297.36-16.76L297.36-16.76Q298.52-18.84 300.70-20.02Q302.88-21.20 305.68-21.20L305.68-21.20Z M350.12-21.20Q354.08-21.20 356.34-18.92Q358.60-16.64 358.60-12.20L358.60-12.20L358.60 0L355.76 0L355.76-11.92Q355.76-15.20 354.18-16.92Q352.60-18.64 349.72-18.64L349.72-18.64Q346.44-18.64 344.56-16.62Q342.68-14.60 342.68-11.04L342.68-11.04L342.68 0L339.84 0L339.84-11.92Q339.84-15.20 338.26-16.92Q336.68-18.64 333.76-18.64L333.76-18.64Q330.52-18.64 328.62-16.62Q326.72-14.60 326.72-11.04L326.72-11.04L326.72 0L323.88 0L323.88-21.04L326.60-21.04L326.60-17.20Q327.72-19.12 329.72-20.16Q331.72-21.20 334.32-21.20L334.32-21.20Q336.96-21.20 338.90-20.08Q340.84-18.96 341.80-16.76L341.80-16.76Q342.96-18.84 345.14-20.02Q347.32-21.20 350.12-21.20L350.12-21.20Z M375.68-21.20Q379.80-21.20 382.00-19.14Q384.20-17.08 384.20-13.04L384.20-13.04L384.20 0L381.48 0L381.48-3.28Q380.52-1.64 378.66-0.72Q376.80 0.20 374.24 0.20L374.24 0.20Q370.72 0.20 368.64-1.48Q366.56-3.16 366.56-5.92L366.56-5.92Q366.56-8.60 368.50-10.24Q370.44-11.88 374.68-11.88L374.68-11.88L381.36-11.88L381.36-13.16Q381.36-15.88 379.84-17.30Q378.32-18.72 375.40-18.72L375.40-18.72Q373.40-18.72 371.56-18.06Q369.72-17.40 368.40-16.24L368.40-16.24L367.12-18.36Q368.72-19.72 370.96-20.46Q373.20-21.20 375.68-21.20L375.68-21.20ZM374.68-2.04Q377.08-2.04 378.80-3.14Q380.52-4.24 381.36-6.32L381.36-6.32L381.36-9.76L374.76-9.76Q369.36-9.76 369.36-6L369.36-6Q369.36-4.16 370.76-3.10Q372.16-2.04 374.68-2.04L374.68-2.04Z M404.64-21.20Q408.60-21.20 410.94-18.90Q413.28-16.60 413.28-12.20L413.28-12.20L413.28 0L410.44 0L410.44-11.92Q410.44-15.20 408.80-16.92Q407.16-18.64 404.12-18.64L404.12-18.64Q400.72-18.64 398.74-16.62Q396.76-14.60 396.76-11.04L396.76-11.04L396.76 0L393.92 0L393.92-21.04L396.64-21.04L396.64-17.16Q397.80-19.08 399.86-20.14Q401.92-21.20 404.64-21.20L404.64-21.20Z M439.44-29.68L442.28-29.68L442.28 0L439.56 0L439.56-4.16Q438.28-2.04 436.18-0.92Q434.08 0.20 431.44 0.20L431.44 0.20Q428.48 0.20 426.08-1.16Q423.68-2.52 422.32-4.96Q420.96-7.40 420.96-10.52L420.96-10.52Q420.96-13.64 422.32-16.08Q423.68-18.52 426.08-19.86Q428.48-21.20 431.44-21.20L431.44-21.20Q434.00-21.20 436.06-20.14Q438.12-19.08 439.44-17.04L439.44-17.04L439.44-29.68ZM431.68-2.32Q433.88-2.32 435.66-3.34Q437.44-4.36 438.46-6.24Q439.48-8.12 439.48-10.52L439.48-10.52Q439.48-12.92 438.46-14.80Q437.44-16.68 435.66-17.70Q433.88-18.72 431.68-18.72L431.68-18.72Q429.44-18.72 427.66-17.70Q425.88-16.68 424.86-14.80Q423.84-12.92 423.84-10.52L423.84-10.52Q423.84-8.12 424.86-6.24Q425.88-4.36 427.66-3.34Q429.44-2.32 431.68-2.32L431.68-2.32Z M470.56-10.52L470.52-9.64L452.92-9.64Q453.16-6.36 455.44-4.34Q457.72-2.32 461.20-2.32L461.20-2.32Q463.16-2.32 464.80-3.02Q466.44-3.72 467.64-5.08L467.64-5.08L469.24-3.24Q467.84-1.56 465.74-0.68Q463.64 0.20 461.12 0.20L461.12 0.20Q457.88 0.20 455.38-1.18Q452.88-2.56 451.48-5Q450.08-7.44 450.08-10.52L450.08-10.52Q450.08-13.60 451.42-16.04Q452.76-18.48 455.10-19.84Q457.44-21.20 460.36-21.20L460.36-21.20Q463.28-21.20 465.60-19.84Q467.92-18.48 469.24-16.06Q470.56-13.64 470.56-10.52L470.56-10.52ZM460.36-18.76Q457.32-18.76 455.26-16.82Q453.20-14.88 452.92-11.76L452.92-11.76L467.84-11.76Q467.56-14.88 465.50-16.82Q463.44-18.76 460.36-18.76L460.36-18.76Z M481.08-16.92Q482.08-19.04 484.06-20.12Q486.04-21.20 488.96-21.20L488.96-21.20L488.96-18.44L488.28-18.48Q484.96-18.48 483.08-16.44Q481.20-14.40 481.20-10.72L481.20-10.72L481.20 0L478.36 0L478.36-21.04L481.08-21.04L481.08-16.92Z"/></g>
</svg>
</g><g opacity="1" transform="rotate(0 487.1898 521.4253)">
<svg width="309.919" height="120" x="487.1898" y="521.4253" version="1.1" preserveAspectRatio="none" viewBox="2.72 -28.72 75 29.04">
  <g transform="matrix(1 0 0 1 0 0)" class="companyName"><path id="id-D6z1nYkh3" d="M25.96-2Q24.52-1.04 22.02-0.36Q19.52 0.32 17.36 0.32L17.36 0.32Q13 0.32 9.68-1.56Q6.36-3.44 4.54-6.68Q2.72-9.92 2.72-13.92L2.72-13.92Q2.72-18.16 4.68-21.54Q6.64-24.92 9.96-26.82Q13.28-28.72 17.24-28.72L17.24-28.72Q21.52-28.72 25.04-26.64L25.04-26.64L24.32-24.88Q22.88-25.72 21.04-26.24Q19.20-26.76 17.44-26.76L17.44-26.76Q13.88-26.76 10.96-25.10Q8.04-23.44 6.38-20.54Q4.72-17.64 4.72-14.04L4.72-14.04Q4.72-10.52 6.30-7.68Q7.88-4.84 10.74-3.22Q13.60-1.60 17.32-1.60L17.32-1.60Q19.04-1.60 20.88-2.02Q22.72-2.44 24-3.16L24-3.16L24-11.04L17.60-11.04L17.60-12.92L25.96-12.92L25.96-2Z M54.56-1.88Q53-0.92 51.04-0.30Q49.08 0.32 46.84 0.32L46.84 0.32Q42.56 0.32 39.28-1.60Q36-3.52 34.18-6.80Q32.36-10.08 32.36-14L32.36-14Q32.36-18.12 34.24-21.48Q36.12-24.84 39.40-26.78Q42.68-28.72 46.68-28.72L46.68-28.72Q50.88-28.72 54.44-26.56L54.44-26.56L53.60-24.76Q50.24-26.84 46.72-26.84L46.72-26.84Q43.40-26.84 40.56-25.14Q37.72-23.44 36.06-20.50Q34.40-17.56 34.40-14.08L34.40-14.08Q34.40-10.64 35.92-7.78Q37.44-4.92 40.24-3.24Q43.04-1.56 46.72-1.56L46.72-1.56Q50.40-1.56 53.64-3.60L53.64-3.60L54.56-1.88Z M76-25.20Q74.56-25.88 72.80-26.36Q71.04-26.84 69.36-26.84L69.36-26.84Q66.56-26.84 64.88-25.46Q63.20-24.08 63.20-21.92L63.20-21.92Q63.20-20.40 64.10-19.34Q65-18.28 66.40-17.58Q67.80-16.88 70-16.04L70-16.04Q72.40-15.16 73.98-14.24Q75.56-13.32 76.64-11.74Q77.72-10.16 77.72-7.68L77.72-7.68Q77.72-5.32 76.60-3.50Q75.48-1.68 73.46-0.68Q71.44 0.32 68.84 0.32L68.84 0.32Q64.32 0.32 59.88-2.60L59.88-2.60L60.80-4.20Q62.28-3.08 64.44-2.24Q66.60-1.40 68.64-1.40L68.64-1.40Q70.44-1.40 72.06-2.10Q73.68-2.80 74.70-4.22Q75.72-5.64 75.72-7.64L75.72-7.64Q75.72-9.52 74.78-10.80Q73.84-12.08 72.42-12.86Q71-13.64 68.84-14.44L68.84-14.44Q66.44-15.32 64.88-16.14Q63.32-16.96 62.26-18.32Q61.20-19.68 61.20-21.72L61.20-21.72Q61.20-23.72 62.22-25.26Q63.24-26.80 65.06-27.66Q66.88-28.52 69.12-28.56L69.12-28.56Q71.04-28.56 73.10-28.04Q75.16-27.52 76.76-26.72L76.76-26.72L76-25.20Z"/></g>
</svg>
</g></svg></svg>